#N canvas 588 91 540 637 10;
#X obj 280 51 receive fromNetwork;
#X obj 65 51 receive fromGUI;
#X obj 289 204 send toNetwork;
#X obj 64 85 route list;
#X obj 65 207 metro 250;
#X obj 68 241 int;
#X obj 87 270 + 1;
#X floatatom 24 260 5 0 0 0 - - -;
#X msg 69 331 list counterSlider \$1;
#X obj 64 159 trigger b 0;
#X obj 281 100 route sync;
#X obj 367 132 print;
#X obj 66 365 send toGUI;
#X obj 252 148 select 1;
#X obj 27 186 bng 15 250 50 0 empty empty empty 17 7 0 10 -262144 -1
-1;
#X obj 24 140 bng 15 250 50 0 empty empty empty 17 7 0 10 -262144 -1
-1;
#X obj 280 76 route list;
#X msg 262 176 list sync 0;
#X obj 306 425 table grid 32;
#X obj 307 268 unpack 0 0 0;
#X obj 307 365 int;
#X obj 337 294 * 8;
#X obj 309 311 + 1;
#X obj 307 339 trigger b 0;
#X msg 398 223 0 0 1;
#X obj 307 393 tabwrite grid;
#X obj 66 119 route sync trigger theGrid counterSlider;
#X obj 309 461 tabread grid;
#X obj 425 467 until;
#X obj 424 493 int;
#X obj 438 519 + 1;
#X obj 392 564 print;
#X msg 424 448 4;
#X obj 425 425 trigger b 0;
#X obj 423 400 bng 15 250 50 0 empty empty empty 17 7 0 10 -262144
-1 -1;
#X msg 138 365 list theGrid getcolumn \$1;
#X obj 82 301 mod 8;
#X obj 185 223 route column;
#X obj 134 428 print;
#X msg 125 498 list helloLabel \$1 \$2 \$3 \$4;
#X obj 48 513 int;
#X connect 0 0 11 0;
#X connect 0 0 16 0;
#X connect 1 0 3 0;
#X connect 3 0 26 0;
#X connect 4 0 5 0;
#X connect 5 0 6 0;
#X connect 5 0 7 0;
#X connect 5 0 8 0;
#X connect 5 0 35 0;
#X connect 6 0 36 0;
#X connect 8 0 12 0;
#X connect 9 0 4 0;
#X connect 9 1 5 1;
#X connect 10 0 9 0;
#X connect 13 0 17 0;
#X connect 14 0 4 0;
#X connect 15 0 9 0;
#X connect 16 0 10 0;
#X connect 17 0 2 0;
#X connect 19 0 22 0;
#X connect 19 1 21 0;
#X connect 19 2 20 1;
#X connect 20 0 25 0;
#X connect 21 0 22 1;
#X connect 22 0 23 0;
#X connect 23 0 20 0;
#X connect 23 1 25 1;
#X connect 24 0 19 0;
#X connect 26 0 13 0;
#X connect 26 1 4 0;
#X connect 26 2 37 0;
#X connect 28 0 29 0;
#X connect 29 0 30 0;
#X connect 29 0 31 0;
#X connect 30 0 29 1;
#X connect 32 0 28 0;
#X connect 33 0 32 0;
#X connect 33 1 29 1;
#X connect 34 0 33 0;
#X connect 35 0 12 0;
#X connect 36 0 5 1;
#X connect 37 0 39 0;
#X connect 37 1 19 0;
#X connect 39 0 12 0;
