#N canvas 681 83 718 653 10;
#X obj 41 -90 loadbang;
#X obj 45 474 dac~;
#X obj 390 284 snapshot~;
#X obj 368 241 metro 100;
#X obj 367 213 loadbang;
#X obj 324 286 snapshot~;
#X msg 322 342 list /xSlider \$1;
#X msg 435 342 list /ySlider \$1;
#X obj 329 399 send toGUI;
#X obj 40 -39 soundfiler;
#X obj 45 180 /~ 2;
#X obj 45 203 +~ 0.5;
#X obj 351 58 until;
#X obj 351 80 int;
#X obj 390 81 + 1;
#X obj 351 105 t f f;
#X msg 398 37 0;
#X obj 351 11 loadbang;
#X obj 348 -141 receive fromGUI;
#X obj 346 -116 list trim;
#X obj 345 -96 route /resetButton;
#X obj 344 -72 select 1;
#X obj 342 -49 t b b b;
#X msg 339 -21 list /myTableA refresh;
#X msg 463 314 list /xSliderB \$1;
#X obj 163 -30 receive fromGUI;
#X obj 161 -5 list trim;
#X obj 153 42 route range;
#X obj 46 330 +~;
#X obj 153 62 unpack 0 0;
#X obj 168 94 swap;
#X obj 166 117 -;
#X obj 464 287 snapshot~;
#X obj 158 19 route /myTableB;
#X msg 438 379 list /myTableB refresh;
#X obj 346 149 tabwrite /myTableA;
#X obj 48 408 tabread4~ /myTableB;
#X msg 434 0 list /myTableB clearSelection;
#X msg 101 322 0, f 4;
#X obj 43 85 phasor~ 0.231;
#X obj 465 262 /~ 190569;
#X obj 46 258 *~ 190669;
#X msg 97 236 190569;
#X obj 39 -122 table /myTableB 190569;
#X msg 41 -62 read anderson1.wav /myTableB;
#X obj 427 214 tgl 15 0 empty empty empty 17 7 0 10 -262144 -1 -1 0
1;
#X obj 38 -149 table /myTableA 500;
#X obj 45 118 *~ 500;
#X msg 351 37 500;
#X obj 347 125 expr $f1/500*2-1;
#X obj 45 155 tabread4~ /myTableA;
#X connect 0 0 44 0;
#X connect 2 0 7 0;
#X connect 3 0 2 0;
#X connect 3 0 5 0;
#X connect 3 0 32 0;
#X connect 4 0 3 0;
#X connect 5 0 6 0;
#X connect 6 0 8 0;
#X connect 7 0 8 0;
#X connect 10 0 11 0;
#X connect 11 0 2 0;
#X connect 11 0 41 0;
#X connect 12 0 13 0;
#X connect 13 0 14 0;
#X connect 13 0 15 0;
#X connect 14 0 13 1;
#X connect 15 0 49 0;
#X connect 15 1 35 1;
#X connect 16 0 13 1;
#X connect 17 0 48 0;
#X connect 18 0 19 0;
#X connect 19 0 20 0;
#X connect 20 0 21 0;
#X connect 21 0 22 0;
#X connect 22 0 23 0;
#X connect 22 0 37 0;
#X connect 22 0 38 0;
#X connect 22 0 42 0;
#X connect 22 1 48 0;
#X connect 22 2 16 0;
#X connect 23 0 8 0;
#X connect 24 0 8 0;
#X connect 25 0 26 0;
#X connect 26 0 33 0;
#X connect 27 0 29 0;
#X connect 28 0 36 0;
#X connect 28 0 40 0;
#X connect 29 0 28 1;
#X connect 29 0 30 0;
#X connect 29 1 30 1;
#X connect 30 0 31 0;
#X connect 30 1 31 1;
#X connect 31 0 41 1;
#X connect 32 0 24 0;
#X connect 33 0 27 0;
#X connect 34 0 8 0;
#X connect 36 0 1 0;
#X connect 36 0 1 1;
#X connect 37 0 8 0;
#X connect 38 0 28 1;
#X connect 39 0 5 0;
#X connect 39 0 47 0;
#X connect 40 0 32 0;
#X connect 41 0 28 0;
#X connect 42 0 41 1;
#X connect 44 0 9 0;
#X connect 45 0 3 0;
#X connect 47 0 50 0;
#X connect 48 0 12 0;
#X connect 49 0 35 0;
#X connect 50 0 10 0;
