#N canvas 350 34 995 715 10;
#X obj -119 432 send toGUI;
#X obj 54 -48 receive fromGUI;
#X obj 53 -20 route list;
#X obj 206 240 tabwrite pitch;
#X obj 204 129 list split 1;
#X obj 292 128 t l;
#X obj 204 101 t l l;
#X obj 246 154 list length;
#X obj 230 204 - 1;
#X obj 230 179 int;
#X obj 204 155 t f b;
#X obj 47 176 metro 125;
#X obj 43 148 tgl 15 0 empty empty empty 17 7 0 10 -262144 -1 -1 1
1;
#X obj 48 208 int;
#X obj 79 210 + 1;
#X obj 46 313 tabread pitch;
#X obj 46 368 int;
#X floatatom 45 393 5 0 0 0 - - -;
#X obj 46 418 mtof;
#X obj 55 567 dac~;
#X obj 49 443 phasor~;
#X obj 327 131 list split 1;
#X obj 415 130 t l;
#X obj 327 103 t l l;
#X obj 369 156 list length;
#X obj 353 206 - 1;
#X obj 353 181 int;
#X obj 327 157 t f b;
#X obj 335 241 tabwrite filt;
#X obj 142 316 tabread filt;
#X msg -119 402 list /indexSlider \$1;
#X floatatom 78 147 5 0 0 0 - - -;
#X obj 100 538 line~;
#X obj 102 492 t b b;
#X msg 209 494 1;
#X obj 51 535 *~;
#X obj 46 345 expr $f1*24+48;
#X obj 79 237 % 16;
#X obj 206 262 table pitch 16;
#X obj 335 263 table filt 16;
#X obj 51 474 lop~;
#X obj 491 224 send toGUI;
#X obj 489 149 t l b;
#X obj 490 177 list prepend /presetGrid set;
#X msg 528 199 list /presetGrid clear;
#X obj 489 84 unpack 0 0 0;
#X obj 488 113 pack 0 0 1;
#X obj 144 345 expr $f1*$f1*$f1*6000+220;
#X obj 53 5 route /pitchMulti /filtMulti /presetGrid /tempoKnob;
#X obj 42 118 loadbang;
#X obj 280 32 expr (1-sqrt($f1))*450+50;
#X obj 101 512 pack 0 125;
#N canvas 0 22 986 662 presetsandrandom 0;
#X obj 93 643 send toGUI;
#X obj 82 523 list prepend /pitchMulti;
#X obj 240 523 list prepend /filtMulti;
#X msg 81 381 0 0.5 0 0.5 0 0.5 0 0.5 0 0.5 0 0.5 0 0.5 0 0.5;
#X msg 236 406 1 0 0.5 0.1 0.4 1 0 0.4 1 0 0.5 1 0.4 0 1 0.4;
#X msg 90 441 0.5 0.5 0.8 0.5 0.87 0.5 0.8 0.5 0.35 0.35 0.5 0.63 0.3
0.3 0.47 0.59;
#X msg 241 475 1 0.5 1 0.5 1 0.5 1 0.5 1 1 0.5 0.5 1 1 0.5 0.5;
#X obj 106 34 select 0 1 2 3;
#X obj 341 197 / 100;
#X obj 341 147 until;
#X msg 338 120 16;
#X obj 311 129 bng 15 250 50 0 empty empty empty 17 7 0 10 -262144
-1 -1;
#X obj 340 233 list prepend;
#X obj 422 235 list;
#X obj 320 259 list;
#X obj 311 91 t b b b;
#X obj 310 65 bng 15 250 50 0 empty empty empty 17 7 0 10 -262144 -1
-1;
#X obj 505 178 random 100;
#X obj 505 202 / 100;
#X obj 505 149 until;
#X msg 506 124 16;
#X obj 477 134 bng 15 250 50 0 empty empty empty 17 7 0 10 -262144
-1 -1;
#X obj 507 236 list prepend;
#X obj 589 238 list;
#X obj 487 262 list;
#X obj 477 96 t b b b;
#X obj 476 70 bng 15 250 50 0 empty empty empty 17 7 0 10 -262144 -1
-1;
#X obj 341 173 random 100;
#X obj 107 8 inlet;
#X connect 1 0 0 0;
#X connect 2 0 0 0;
#X connect 3 0 1 0;
#X connect 4 0 2 0;
#X connect 5 0 1 0;
#X connect 6 0 2 0;
#X connect 7 0 3 0;
#X connect 7 0 4 0;
#X connect 7 1 5 0;
#X connect 7 1 6 0;
#X connect 7 2 16 0;
#X connect 7 3 26 0;
#X connect 8 0 12 0;
#X connect 9 0 27 0;
#X connect 10 0 9 0;
#X connect 11 0 14 0;
#X connect 12 0 13 0;
#X connect 12 0 14 1;
#X connect 13 0 12 1;
#X connect 14 0 1 0;
#X connect 15 0 11 0;
#X connect 15 1 10 0;
#X connect 15 2 13 0;
#X connect 16 0 15 0;
#X connect 17 0 18 0;
#X connect 18 0 22 0;
#X connect 19 0 17 0;
#X connect 20 0 19 0;
#X connect 21 0 24 0;
#X connect 22 0 23 0;
#X connect 22 0 24 1;
#X connect 23 0 22 1;
#X connect 24 0 2 0;
#X connect 25 0 21 0;
#X connect 25 1 20 0;
#X connect 25 2 23 0;
#X connect 26 0 25 0;
#X connect 27 0 8 0;
#X connect 28 0 7 0;
#X restore 651 123 pd presetsandrandom;
#X obj -142 341 loadbang;
#X msg -141 364 list /tempoKnob 0.5;
#X floatatom 650 94 5 0 0 0 - - -;
#X text 691 94 button index;
#X text 242 490 envelope each note;
#X text 485 62 a hack to use grid like radio buttons;
#X connect 1 0 2 0;
#X connect 2 0 48 0;
#X connect 4 0 10 0;
#X connect 4 1 5 0;
#X connect 5 0 4 0;
#X connect 6 0 4 0;
#X connect 6 1 7 0;
#X connect 7 0 9 1;
#X connect 8 0 9 1;
#X connect 8 0 3 1;
#X connect 9 0 8 0;
#X connect 10 0 3 0;
#X connect 10 1 9 0;
#X connect 11 0 13 0;
#X connect 12 0 11 0;
#X connect 13 0 14 0;
#X connect 13 0 15 0;
#X connect 13 0 29 0;
#X connect 13 0 30 0;
#X connect 13 0 33 0;
#X connect 14 0 37 0;
#X connect 15 0 36 0;
#X connect 16 0 17 0;
#X connect 17 0 18 0;
#X connect 18 0 20 0;
#X connect 20 0 40 0;
#X connect 21 0 27 0;
#X connect 21 1 22 0;
#X connect 22 0 21 0;
#X connect 23 0 21 0;
#X connect 23 1 24 0;
#X connect 24 0 26 1;
#X connect 25 0 26 1;
#X connect 25 0 28 1;
#X connect 26 0 25 0;
#X connect 27 0 28 0;
#X connect 27 1 26 0;
#X connect 29 0 47 0;
#X connect 30 0 0 0;
#X connect 31 0 11 1;
#X connect 31 0 51 1;
#X connect 32 0 35 1;
#X connect 33 0 51 0;
#X connect 33 1 34 0;
#X connect 34 0 32 0;
#X connect 35 0 19 1;
#X connect 35 0 19 0;
#X connect 36 0 16 0;
#X connect 37 0 13 1;
#X connect 40 0 35 0;
#X connect 42 0 43 0;
#X connect 42 1 44 0;
#X connect 43 0 41 0;
#X connect 44 0 41 0;
#X connect 45 0 46 0;
#X connect 45 0 55 0;
#X connect 45 1 46 1;
#X connect 46 0 42 0;
#X connect 47 0 40 1;
#X connect 48 0 6 0;
#X connect 48 1 23 0;
#X connect 48 2 45 0;
#X connect 48 3 50 0;
#X connect 49 0 12 0;
#X connect 50 0 31 0;
#X connect 51 0 32 0;
#X connect 53 0 54 0;
#X connect 54 0 0 0;
#X connect 55 0 52 0;
