#N canvas 346 27 1024 759 10;
#X obj 283 23 receive fromNetwork;
#X obj 284 49 list trim;
#X text 289 99 the first two (numUsers and userNames) are sent automatically
each time the user list changes.;
#X msg 603 578 list /networkTime;
#X obj 604 602 send toNetwork;
#X obj -226 48 receive fromGUI;
#X obj -226 79 list trim;
#X obj 603 552 metro 250;
#X obj 602 530 tgl 15 0 empty empty empty 17 7 0 10 -262144 -1 -1 1
1;
#X obj 549 490 loadbang;
#X obj 280 279 list prepend;
#X obj 349 212 loadbang;
#X msg 347 237 list /namesLabel user names:;
#X msg 381 281 list /numberLabel number of users: \$1;
#X obj 285 495 send toGUI;
#X msg 391 309 list /timeLabel network time: \$1;
#X msg 605 172 list /recSlider \$1;
#X obj -216 502 send toNetwork;
#X obj -116 425 list prepend;
#X msg -47 399 list /sendMsgLabel;
#X obj -47 377 loadbang;
#X obj -110 464 send toGUI;
#X obj 605 138 route /myCoolValue /clap;
#X obj 534 424 list prepend;
#X obj 584 368 loadbang;
#X msg 584 390 list /recMsgLabel;
#X obj -226 117 route /sendSlider /clapButton /destToggle /modeSlider
;
#X obj -65 171 select 0 1;
#X obj 191 193 loadbang;
#X obj 51 183 select 0 1 2;
#X msg -217 331 list \$2 \$3 /myCoolValue \$1;
#X msg 65 235 symbol /send/GD;
#X msg -61 203 symbol all;
#X msg -42 228 symbol allButMe;
#X msg 75 261 symbol /send/OGD;
#X msg 57 209 symbol /send;
#X msg -46 330 list \$2 \$3 /clap;
#X obj -218 295 pack f s s;
#X obj -47 302 pack f s s;
#X obj 542 701 table clap;
#X obj 684 223 tabplay~ clap;
#X obj 684 196 bng 15 250 50 0 empty empty empty 17 7 0 10 -262144
-1 -1;
#X obj 685 258 dac~;
#X obj 544 669 soundfiler;
#X msg 546 633 read -resize clap.wav clap;
#X obj -148 184 select 1;
#X text 291 83 api messages from LANdini;
#X text 607 109 stuff from user patch;
#X text 437 350 everything not from landini API gets sent to be shown
on screen label;
#X text -32 426 print on screen label;
#X text -197 575 outgoing messages have two elements prepended to them:
the mode and the destination.;
#X text -195 612 <mode> <destination> <user msg address> <val> <val>.....
;
#X text -193 637 mode is "/send" \, "/send/GD" or "/send/OGD";
#X text -195 658 destination is "all" \, "allButMe" \, or the name
of a specific user;
#X text -194 535 ======SPEC:===== (see Jascha Narveson's LANdini webpage
for more info);
#X obj 285 137 route /landini/userNames /landini/numUsers /landini/networkTime
;
#X obj 118 434 loadbang;
#X text 119 413 request data on startup;
#X msg 119 457 list /numUsers \, list /userNames;
#X msg 633 294 list /myLCD clear \, list /myLCD paintrect 0 0 1 1 1
0 1 \$1;
#X text -199 694 these two elements are stripped off the message when
received \, so that the recipient gets only "<user msg address> <val>
<val>....";
#X connect 0 0 1 0;
#X connect 1 0 22 0;
#X connect 1 0 55 0;
#X connect 3 0 4 0;
#X connect 5 0 6 0;
#X connect 6 0 26 0;
#X connect 7 0 3 0;
#X connect 8 0 7 0;
#X connect 9 0 8 0;
#X connect 9 0 44 0;
#X connect 10 0 14 0;
#X connect 11 0 12 0;
#X connect 12 0 10 1;
#X connect 13 0 14 0;
#X connect 15 0 14 0;
#X connect 16 0 14 0;
#X connect 18 0 21 0;
#X connect 19 0 18 1;
#X connect 20 0 19 0;
#X connect 22 0 16 0;
#X connect 22 0 59 0;
#X connect 22 1 41 0;
#X connect 23 0 14 0;
#X connect 24 0 25 0;
#X connect 25 0 23 1;
#X connect 26 0 37 0;
#X connect 26 1 45 0;
#X connect 26 2 27 0;
#X connect 26 3 29 0;
#X connect 27 0 32 0;
#X connect 27 1 33 0;
#X connect 28 0 32 0;
#X connect 28 0 35 0;
#X connect 29 0 35 0;
#X connect 29 1 31 0;
#X connect 29 2 34 0;
#X connect 30 0 17 0;
#X connect 30 0 18 0;
#X connect 31 0 37 1;
#X connect 31 0 38 1;
#X connect 32 0 37 2;
#X connect 32 0 38 2;
#X connect 33 0 37 2;
#X connect 33 0 38 2;
#X connect 34 0 37 1;
#X connect 34 0 38 1;
#X connect 35 0 37 1;
#X connect 35 0 38 1;
#X connect 36 0 18 0;
#X connect 36 0 17 0;
#X connect 37 0 30 0;
#X connect 38 0 36 0;
#X connect 40 0 42 0;
#X connect 40 0 42 1;
#X connect 41 0 40 0;
#X connect 44 0 43 0;
#X connect 45 0 38 0;
#X connect 55 0 10 0;
#X connect 55 1 13 0;
#X connect 55 2 15 0;
#X connect 55 3 23 0;
#X connect 56 0 58 0;
#X connect 58 0 17 0;
