#N canvas 219 118 806 609 10;
#X obj 40 50 receive fromGUI;
#X obj 39 84 route list;
#X obj 321 78 route list;
#X obj 321 46 receive fromSystem;
#X obj 38 207 tgl 15 0 empty empty empty 17 7 0 10 -262144 -1 -1 0
1;
#X obj 39 267 send toSystem;
#X text 63 204 turn iphone camera flash on/off;
#X obj 565 302 dac~;
#X msg 39 227 list /flash \$1;
#X obj 327 427 send toGUI;
#X msg 327 381 list /showTiltXYSlider \$1 \$2;
#X obj 322 139 unpack 0 0;
#X obj 324 241 pack 0 0;
#X obj 322 165 + 1;
#X obj 353 165 + 1;
#X obj 353 190 / 2;
#X obj 322 190 / 2;
#X obj 566 221 noise~;
#X obj 614 250 line~;
#X obj 566 271 *~;
#X obj 468 245 phasor~;
#X obj 468 218 * -10;
#X obj 455 281 *~;
#X obj 418 284 osc~;
#X obj 417 218 * 660;
#X obj 417 257 + 220;
#X obj 454 314 dac~;
#X msg 613 219 1 \, 0 2000;
#X obj 38 112 route /flashToggle /vibButton;
#X text 39 139;
#X obj 124 136 select 1;
#X msg 125 159 list /vibrate 0;
#X text 231 160 vibrate;
#X msg 143 294 list /vibrate 1;
#X text 142 272 different vibration;
#X obj 322 102 route /tilts /shake;
#X connect 0 0 1 0;
#X connect 1 0 28 0;
#X connect 2 0 35 0;
#X connect 3 0 2 0;
#X connect 4 0 8 0;
#X connect 8 0 5 0;
#X connect 10 0 9 0;
#X connect 11 0 13 0;
#X connect 11 1 14 0;
#X connect 12 0 10 0;
#X connect 13 0 16 0;
#X connect 14 0 15 0;
#X connect 15 0 12 1;
#X connect 15 0 24 0;
#X connect 16 0 12 0;
#X connect 16 0 21 0;
#X connect 17 0 19 0;
#X connect 18 0 19 1;
#X connect 19 0 7 0;
#X connect 19 0 7 1;
#X connect 20 0 22 1;
#X connect 21 0 20 0;
#X connect 22 0 26 0;
#X connect 22 0 26 1;
#X connect 23 0 22 0;
#X connect 24 0 25 0;
#X connect 25 0 23 0;
#X connect 27 0 18 0;
#X connect 28 0 4 0;
#X connect 28 1 30 0;
#X connect 30 0 31 0;
#X connect 31 0 5 0;
#X connect 33 0 5 0;
#X connect 35 0 11 0;
#X connect 35 1 27 0;
