#N canvas 159 84 1208 700 10;
#X obj 34 15 receive fromGUI;
#X obj 34 46 list trim;
#X obj 35 86 route /ovalButton /autoToggle /clearButton;
#X obj 38 168 random 100;
#X obj 38 193 / 100;
#X obj 106 168 random 100;
#X obj 106 193 / 100;
#X obj 77 217 random 100;
#X obj 77 242 / 100;
#X obj 145 217 random 100;
#X obj 145 242 / 100;
#X obj 35 119 select 1;
#X obj 37 382 send toGUI;
#X obj 226 317 loadbang;
#X obj 180 166 random 100;
#X obj 180 191 / 100;
#X obj 248 166 random 100;
#X obj 248 191 / 100;
#X obj 218 218 random 100;
#X obj 218 243 / 100;
#X obj 36 145 t b b b b b b b;
#X obj 190 274 list;
#X obj 38 270 pack 0 0 0 0 0 0 0;
#X msg 37 295 list /myLCD1 frameoval \$1 \$2 \$3 \$4 \$5 \$6 \$7 0.5
;
#X msg 228 341 list /myLCD1 penwidth 5;
#X obj 202 109 select 1;
#X msg 201 133 list /myLCD1 clear;
#X obj 117 120 metro 250;
#X obj 413 122 route 1 2 0;
#X obj 413 154 t l b;
#X msg 409 359 list /myLCD2 moveto \$1 \$2;
#X obj 415 464 send toGUI;
#X obj 425 227 unpack 0 0;
#X obj 573 301 unpack 0 0;
#X obj 419 296 - 0.05;
#X obj 441 277 - 0.05;
#X obj 468 298 + 0.05;
#X obj 500 277 + 0.05;
#X obj 423 254 t f f;
#X obj 465 253 t f f;
#X msg 522 473 list /myLCD2 clear;
#X obj 422 86 route /myLCD2 /colorMulti /penSlider /clearButton2;
#X obj 544 129 unpack 0 0 0 0;
#X obj 421 327 pack 0 0 0 0 0 0 0 0;
#X obj 571 327 pack 0 0 0 0 0 0;
#X msg 433 395 list /myLCD2 frameoval \$1 \$2 \$3 \$4 \$5 \$6 \$7 \$8
;
#X msg 454 428 list /myLCD2 lineto \$1 \$2 \$3 \$4 \$5 \$6;
#X obj 657 112 * 20;
#X obj 658 137 + 1;
#X msg 656 158 list /myLCD2 penwidth \$1;
#X obj 561 16 loadbang;
#X msg 561 39 list /colorMulti 1 0 0 1 \, list /penSlider 0.2;
#X obj 926 512 send toGUI;
#X msg 965 198 list /myLCD3 clear;
#X obj 933 297 random 100;
#X obj 933 322 / 100;
#X obj 932 268 until;
#X msg 932 239 20;
#X obj 930 347 list append;
#X obj 1017 349 list;
#X obj 910 375 list;
#X obj 886 152 bng 15 250 50 0 empty empty empty 17 7 0 10 -262144
-1 -1;
#X obj 907 422 list prepend;
#X msg 1001 392 list /myLCD3 paintpoly;
#X obj 1019 303 list;
#X obj 910 172 t b b b b;
#X obj 912 113 metro 1000;
#X obj 911 86 loadbang;
#X obj 1069 359 loadbang;
#X text 1056 303 empty list to init;
#X connect 0 0 1 0;
#X connect 1 0 2 0;
#X connect 1 0 41 0;
#X connect 2 0 11 0;
#X connect 2 1 27 0;
#X connect 2 2 25 0;
#X connect 3 0 4 0;
#X connect 4 0 22 0;
#X connect 5 0 6 0;
#X connect 6 0 22 2;
#X connect 7 0 8 0;
#X connect 8 0 22 1;
#X connect 9 0 10 0;
#X connect 10 0 22 3;
#X connect 11 0 20 0;
#X connect 13 0 24 0;
#X connect 14 0 15 0;
#X connect 15 0 22 4;
#X connect 16 0 17 0;
#X connect 17 0 22 6;
#X connect 18 0 19 0;
#X connect 19 0 22 5;
#X connect 20 0 3 0;
#X connect 20 1 7 0;
#X connect 20 2 5 0;
#X connect 20 3 9 0;
#X connect 20 4 14 0;
#X connect 20 5 18 0;
#X connect 20 6 16 0;
#X connect 22 0 23 0;
#X connect 23 0 12 0;
#X connect 24 0 12 0;
#X connect 25 0 26 0;
#X connect 26 0 12 0;
#X connect 27 0 20 0;
#X connect 28 0 29 0;
#X connect 28 1 33 0;
#X connect 28 2 32 0;
#X connect 29 0 32 0;
#X connect 29 0 30 0;
#X connect 30 0 31 0;
#X connect 32 0 38 0;
#X connect 32 1 39 0;
#X connect 33 0 44 0;
#X connect 33 1 44 1;
#X connect 34 0 43 0;
#X connect 35 0 43 1;
#X connect 36 0 43 2;
#X connect 37 0 43 3;
#X connect 38 0 34 0;
#X connect 38 1 36 0;
#X connect 39 0 35 0;
#X connect 39 1 37 0;
#X connect 40 0 31 0;
#X connect 41 0 28 0;
#X connect 41 1 42 0;
#X connect 41 2 47 0;
#X connect 41 3 40 0;
#X connect 42 0 43 4;
#X connect 42 0 44 2;
#X connect 42 1 44 3;
#X connect 42 1 43 5;
#X connect 42 2 43 6;
#X connect 42 2 44 4;
#X connect 42 3 43 7;
#X connect 42 3 44 5;
#X connect 43 0 45 0;
#X connect 44 0 46 0;
#X connect 45 0 31 0;
#X connect 46 0 31 0;
#X connect 47 0 48 0;
#X connect 48 0 49 0;
#X connect 49 0 31 0;
#X connect 50 0 51 0;
#X connect 51 0 31 0;
#X connect 53 0 52 0;
#X connect 54 0 55 0;
#X connect 55 0 58 0;
#X connect 56 0 54 0;
#X connect 57 0 56 0;
#X connect 58 0 59 0;
#X connect 58 0 60 1;
#X connect 59 0 58 1;
#X connect 60 0 62 0;
#X connect 61 0 65 0;
#X connect 62 0 52 0;
#X connect 63 0 62 1;
#X connect 64 0 58 1;
#X connect 65 0 60 0;
#X connect 65 1 57 0;
#X connect 65 2 64 0;
#X connect 65 3 53 0;
#X connect 66 0 65 0;
#X connect 67 0 66 0;
#X connect 68 0 63 0;
