#N canvas 655 59 636 337 10;
#X obj 6 40 receive fromGUI;
#X obj 6 72 route list;
#X obj 6 105 route /knob0 /knob1;
#X obj 144 106 route /slider0 /slider1 /slider2 /slider3;
#X obj 7 179 route /XYSlider /button /toggle;
#X obj 230 180 route /grid /sliderInPanel;
#X floatatom 20 130 5 0 0 0 - - -;
#X floatatom 74 130 5 0 0 0 - - -;
#X floatatom 308 206 5 0 0 0 - - -;
#X floatatom 154 131 5 0 0 0 - - -;
#X floatatom 208 131 5 0 0 0 - - -;
#X floatatom 270 131 5 0 0 0 - - -;
#X floatatom 331 130 5 0 0 0 - - -;
#X floatatom 72 208 5 0 0 0 - - -;
#X floatatom 133 207 5 0 0 0 - - -;
#X obj 8 237 unpack 0 0;
#X floatatom 7 268 5 0 0 0 - - -;
#X floatatom 48 268 5 0 0 0 - - -;
#X obj 230 240 unpack 0 0 0;
#X text 77 239 XY Slider: x \, y;
#X text 321 241 Grid: x \, y \, val (0 or 1);
#X floatatom 231 270 5 0 0 0 - - -;
#X floatatom 269 270 5 0 0 0 - - -;
#X floatatom 307 269 5 0 0 0 - - -;
#X text 165 34 comment;
#X connect 0 0 1 0;
#X connect 1 0 2 0;
#X connect 1 0 3 0;
#X connect 1 0 4 0;
#X connect 1 0 5 0;
#X connect 2 0 6 0;
#X connect 2 1 7 0;
#X connect 3 0 9 0;
#X connect 3 1 10 0;
#X connect 3 2 11 0;
#X connect 3 3 12 0;
#X connect 4 0 15 0;
#X connect 4 1 13 0;
#X connect 4 2 14 0;
#X connect 5 0 18 0;
#X connect 5 1 8 0;
#X connect 15 0 16 0;
#X connect 15 1 17 0;
#X connect 18 0 21 0;
#X connect 18 1 22 0;
#X connect 18 2 23 0;
