#N canvas 25 41 1348 673 10;
#X obj 23 32 receive fromGUI;
#X obj 23 64 route list;
#X floatatom 23 125 5 0 0 0 - - -;
#X msg 24 185 list /receiveSlider \$1;
#X msg 38 216 list /receiveKnob \$1;
#X text 67 292 this is actually an array of strings \, but they get
concatenated for display.;
#X obj 24 375 send toGUI;
#X msg 61 252 list /receiveLabel the value: \$1;
#X obj 407 344 print;
#X obj 494 265 send toGUI;
#X msg 489 128 list /theGrid 2 1 \$1;
#X obj 572 163 select 1;
#X msg 572 188 list /theGrid clear;
#X obj 405 98 route /theGrid /gridToggle /gridClearButton /panelToggle
;
#X msg 624 221 list /thePanel highlight \$1;
#X text 452 344 messages from the grid;
#X obj 410 439 send toGUI;
#X msg 406 379 list /theGrid getcolumn 1;
#X msg 424 404 list /theGrid getrow 2;
#X text 580 386 request lists from the grid;
#X msg 60 277 list /receiveLabel the value: \$1 \$2;
#X msg 61 337 list /receiveXY \$1 \$2;
#X obj 23 97 route /touchSlider /touchToggle /touchXY;
#X msg 188 214 list /receiveToggle \$1;
#X obj 188 160 > 0.5;
#X obj 192 186 change;
#X obj 845 99 route /panel3Slider0 /panel3Slider1 /panel3Slider2;
#X obj 846 199 send toGUI;
#X msg 934 162 list /panel3Slider2 \$1;
#X msg 846 136 list /panel3Slider1 set \$1;
#X obj 1171 377 send toGUI;
#X obj 1173 97 route /panel4Multi /panel4Slider;
#X obj 1174 140 list prepend /panel4ValLabel slider values:;
#X obj 1251 186 select 0 1 2 3;
#X msg 1253 271 0 0.1 0.2 0.3 0.4 0.5 0.6 0.7;
#X obj 1196 330 list prepend /panel4Multi;
#X msg 1252 217 0.33 0.66;
#X msg 1250 242 0 0.33 0.66 1;
#X msg 1254 303 0 0.1 0.2 0.3 0.4 0.5 0.6 0.7 0 0.1 0.2 0.3 0.4 0.5
0.6 0.7;
#X connect 0 0 1 0;
#X connect 1 0 13 0;
#X connect 1 0 22 0;
#X connect 1 0 26 0;
#X connect 1 0 31 0;
#X connect 2 0 3 0;
#X connect 2 0 4 0;
#X connect 2 0 7 0;
#X connect 2 0 24 0;
#X connect 3 0 6 0;
#X connect 4 0 6 0;
#X connect 7 0 6 0;
#X connect 10 0 9 0;
#X connect 11 0 12 0;
#X connect 12 0 9 0;
#X connect 13 0 8 0;
#X connect 13 1 10 0;
#X connect 13 2 11 0;
#X connect 13 3 14 0;
#X connect 14 0 9 0;
#X connect 17 0 16 0;
#X connect 18 0 16 0;
#X connect 20 0 6 0;
#X connect 21 0 6 0;
#X connect 22 0 2 0;
#X connect 22 1 3 0;
#X connect 22 1 4 0;
#X connect 22 1 7 0;
#X connect 22 1 23 0;
#X connect 22 2 20 0;
#X connect 22 2 21 0;
#X connect 23 0 6 0;
#X connect 24 0 25 0;
#X connect 25 0 23 0;
#X connect 26 0 29 0;
#X connect 26 1 28 0;
#X connect 28 0 27 0;
#X connect 29 0 27 0;
#X connect 31 0 32 0;
#X connect 31 1 33 0;
#X connect 32 0 30 0;
#X connect 33 0 36 0;
#X connect 33 1 37 0;
#X connect 33 2 34 0;
#X connect 33 3 38 0;
#X connect 34 0 35 0;
#X connect 35 0 30 0;
#X connect 36 0 35 0;
#X connect 37 0 35 0;
#X connect 38 0 35 0;
