#N canvas 678 55 606 346 10;
#X obj 46 33 receive fromGUI;
#X obj 47 64 route list;
#X obj 46 92 route /touchSlider;
#X msg 329 148 list /receiveSlider \$1;
#X msg 46 143 list /valueToNetwork \$1;
#X obj 45 178 send toNetwork;
#X obj 329 66 route list;
#X obj 328 35 receive fromNetwork;
#X obj 328 94 route /valueToNetwork;
#X floatatom 328 120 5 0 0 0 - - -;
#X obj 329 179 send toGUI;
#X floatatom 45 121 5 0 0 0 - - -;
#X connect 0 0 1 0;
#X connect 1 0 2 0;
#X connect 2 0 11 0;
#X connect 3 0 10 0;
#X connect 4 0 5 0;
#X connect 6 0 8 0;
#X connect 7 0 6 0;
#X connect 8 0 9 0;
#X connect 9 0 3 0;
#X connect 11 0 4 0;
