#N canvas 728 208 701 397 10;
#X obj 48 199 outlet;
#X obj 44 43 inlet;
#X obj 153 229 list prepend set;
#X obj 153 252 list trim;
#X obj 157 42 receive \$1;
#X obj 153 274 send \$2;
#X obj 501 30 loadbang;
#X obj 261 51 spigot;
#X obj 283 205 spigot;
#X obj 503 78 select empty -;
#X obj 584 104 t b;
#X msg 585 126 1;
#X obj 499 145 loadbang;
#X obj 501 193 select empty -;
#X obj 582 219 t b;
#X msg 583 241 1;
#X obj 502 54 symbol \$4;
#X obj 260 5 receive \$4;
#X obj 282 333 send \$3;
#X obj 500 169 symbol \$3;
#X text 152 170 strip off "set" if there;
#X text 157 19 from MMP gui;
#X text 153 296 to MMPGui;
#X text 42 116 I am the one being set \, so don't sent it out in the
patch;
#X text 339 335 to a patch "send";
#X text 259 -15 from a patch "receive";
#X obj 283 260 t b a b;
#X msg 282 288 1;
#X msg 322 288 0;
#X obj 260 29 spigot 1;
#X text 346 273 in case my send/rec are the same \, make sure I don't
overflow - send to everyone else except me.;
#X obj 151 190 route set bang;
#X obj 11 113 tgl 15 0 empty empty empty 17 7 0 10 -262144 -1 -1 0
1;
#X connect 1 0 31 0;
#X connect 1 0 32 0;
#X connect 2 0 3 0;
#X connect 3 0 5 0;
#X connect 4 0 32 0;
#X connect 6 0 16 0;
#X connect 7 0 31 0;
#X connect 7 0 32 0;
#X connect 8 0 26 0;
#X connect 9 2 10 0;
#X connect 10 0 11 0;
#X connect 11 0 7 1;
#X connect 12 0 19 0;
#X connect 13 2 14 0;
#X connect 14 0 15 0;
#X connect 15 0 8 1;
#X connect 16 0 9 0;
#X connect 17 0 29 0;
#X connect 19 0 13 0;
#X connect 26 0 27 0;
#X connect 26 1 18 0;
#X connect 26 2 28 0;
#X connect 27 0 29 1;
#X connect 28 0 29 1;
#X connect 29 0 7 0;
#X connect 31 0 2 0;
#X connect 31 1 5 0;
#X connect 31 2 2 0;
#X connect 32 0 0 0;
#X connect 32 0 8 0;
