#N canvas 711 108 533 375 10;
#X obj 156 96 outlet;
#X obj 44 43 inlet;
#X obj 157 42 receive \$1;
#X obj 40 306 send \$2;
#X text 157 19 from MMP gui - just a bang for a touch;
#X obj 44 156 route set add add2 addcomma addsemi adddollar adddollsym
;
#X text 40 328 to MMPGui \, just "set" messages to refresh label;
#X obj 44 181 list prepend set;
#X obj 39 283 list trim;
#X obj 54 202 list prepend add;
#X obj 66 224 list prepend add2;
#X obj 76 245 list prepend addcomma;
#X obj 204 224 list prepend adddollsym;
#X obj 192 202 list prepend adddollar;
#X obj 182 181 list prepend addsemi;
#X obj 157 69 t b;
#X connect 1 0 5 0;
#X connect 2 0 15 0;
#X connect 5 0 7 0;
#X connect 5 1 9 0;
#X connect 5 2 10 0;
#X connect 5 3 11 0;
#X connect 5 4 14 0;
#X connect 5 5 13 0;
#X connect 5 6 12 0;
#X connect 7 0 8 0;
#X connect 8 0 3 0;
#X connect 9 0 8 0;
#X connect 10 0 8 0;
#X connect 11 0 8 0;
#X connect 12 0 8 0;
#X connect 13 0 8 0;
#X connect 14 0 8 0;
#X connect 15 0 0 0;
