#N canvas 273 88 621 394 10;
#X obj 48 199 outlet;
#X obj 44 43 inlet;
#X obj 157 42 receive \$1;
#X obj 153 274 send \$2;
#X obj 358 27 loadbang;
#X obj 261 51 spigot;
#X obj 279 198 spigot;
#X obj 360 75 select empty -;
#X obj 441 101 t b;
#X msg 442 123 1;
#X obj 362 137 loadbang;
#X obj 364 185 select empty -;
#X obj 445 211 t b;
#X msg 446 233 1;
#X obj 359 51 symbol \$4;
#X obj 261 1 receive \$4;
#X obj 280 344 send \$3;
#X obj 363 161 symbol \$3;
#X obj 157 72 spigot 1;
#X obj 154 206 t b a b;
#X msg 153 234 1;
#X msg 193 234 0;
#X obj 283 260 t b a b;
#X msg 282 288 1;
#X msg 322 288 0;
#X text 346 273 in case my send/rec are the same \, make sure I don't
overflow - send to everyone else except me.;
#X obj 259 27 spigot 1;
#X text 17 308 can't send set \, so block receive while I send to avoi
overflow;
#X connect 1 0 0 0;
#X connect 1 0 6 0;
#X connect 1 0 19 0;
#X connect 2 0 18 0;
#X connect 4 0 14 0;
#X connect 5 0 0 0;
#X connect 5 0 19 0;
#X connect 5 0 6 0;
#X connect 6 0 22 0;
#X connect 7 2 8 0;
#X connect 8 0 9 0;
#X connect 9 0 5 1;
#X connect 10 0 17 0;
#X connect 11 2 12 0;
#X connect 12 0 13 0;
#X connect 13 0 6 1;
#X connect 14 0 7 0;
#X connect 15 0 26 0;
#X connect 17 0 11 0;
#X connect 18 0 6 0;
#X connect 18 0 0 0;
#X connect 19 0 20 0;
#X connect 19 1 3 0;
#X connect 19 2 21 0;
#X connect 20 0 18 1;
#X connect 21 0 18 1;
#X connect 22 0 23 0;
#X connect 22 1 16 0;
#X connect 22 2 24 0;
#X connect 23 0 26 1;
#X connect 24 0 26 1;
#X connect 26 0 5 0;
