#N canvas 522 277 752 379 10;
#X obj 92 22 notein 1;
#X obj 301 91 / 127;
#X obj 92 79 mtof;
#X obj 300 117 trigger b f;
#X obj 133 86 / 127;
#X obj 284 173 * 1;
#X floatatom 285 209 5 0 0 0 - - -;
#X obj 303 46 ctlin 1 1;
#X obj 369 47 ctlin 2 1;
#X obj 106 207 *~;
#X obj 375 86 / 127;
#X obj 381 206 + 500;
#X obj 97 277 dac~;
#X floatatom 421 84 5 0 0 0 - - -;
#X obj 381 176 * 10000;
#X obj 69 135 phasor~ 0;
#X floatatom 10 77 5 0 0 0 - - -;
#X obj 69 52 stripnote;
#X floatatom 146 4 5 0 0 0 - - -;
#X obj 139 159 *;
#X obj 140 132 trigger f f;
#X obj 85 182 lop~;
#X obj 382 142 *;
#X obj 383 115 trigger f f;
#X obj 376 -48 receive tilts;
#X obj 377 -21 unpack 0 0;
#X obj 18 276 noteout;
#X connect 0 0 17 0;
#X connect 0 0 26 0;
#X connect 0 1 4 0;
#X connect 0 1 17 1;
#X connect 0 1 26 1;
#X connect 1 0 3 0;
#X connect 2 0 15 0;
#X connect 3 0 5 0;
#X connect 3 1 5 1;
#X connect 4 0 20 0;
#X connect 5 0 6 0;
#X connect 7 0 1 0;
#X connect 8 0 10 0;
#X connect 9 0 12 0;
#X connect 9 0 12 1;
#X connect 10 0 23 0;
#X connect 11 0 21 1;
#X connect 13 0 10 0;
#X connect 14 0 11 0;
#X connect 15 0 21 0;
#X connect 16 0 15 0;
#X connect 17 0 2 0;
#X connect 19 0 9 1;
#X connect 20 0 19 0;
#X connect 20 1 19 1;
#X connect 21 0 9 0;
#X connect 22 0 14 0;
#X connect 23 0 22 0;
#X connect 23 1 22 1;
#X connect 24 0 25 0;
