#N canvas 699 255 778 517 10;
#X obj 301 91 / 127;
#X obj 92 79 mtof;
#X obj 300 117 trigger b f;
#X obj 284 173 * 1;
#X floatatom 285 209 5 0 0 0 - - -;
#X obj 303 46 ctlin 1 1;
#X obj 369 47 ctlin 2 1;
#X obj 106 207 *~;
#X obj 375 86 / 127;
#X obj 381 206 + 500;
#X obj 87 277 dac~;
#X floatatom 421 84 5 0 0 0 - - -;
#X obj 381 176 * 10000;
#X floatatom 10 77 5 0 0 0 - - -;
#X floatatom 146 4 5 0 0 0 - - -;
#X obj 139 159 *;
#X obj 140 132 trigger f f;
#X obj 85 182 lop~;
#X obj 382 142 *;
#X obj 383 115 trigger f f;
#X obj 18 276 noteout;
#X obj 72 -48 + 48;
#X obj 59 -107 route list;
#X msg 202 -109;
#X obj 69 135 phasor~ 0;
#X obj 515 175 send fromPD;
#X msg 520 37 helloLabel;
#X obj 523 10 trigger b b f;
#X obj 301 -26 print;
#X floatatom 555 -11 5 0 0 0 - - -;
#X msg 559 67 symbol monkey;
#X obj 620 211 metro 250;
#X obj 623 245 int;
#X obj 642 274 + 1;
#X obj 628 305 mod 10;
#X floatatom 579 264 5 0 0 0 - - -;
#X floatatom 518 85 5 0 0 0 - - -;
#X msg 512 110 list helloLabel monkey \$1;
#X msg 624 335 list counterSlider \$1;
#X obj 63 -83 route freq12 trigger cutoffNorm pad;
#X obj 371 263 / 12;
#X msg 370 302 list pad \$1 \$1;
#X obj 370 -119 random 100;
#X obj 371 -93 / 100;
#X obj 344 -142 bng 15 250 50 0 empty empty empty 17 7 0 10 -262144
-1 -1;
#X obj 372 -60 route tilts;
#X msg 375 -13 list pad \$1 \$2;
#X obj 50 -139 receive fromGUI;
#X connect 0 0 2 0;
#X connect 1 0 24 0;
#X connect 2 0 3 0;
#X connect 2 1 3 1;
#X connect 3 0 4 0;
#X connect 5 0 0 0;
#X connect 6 0 8 0;
#X connect 7 0 10 0;
#X connect 7 0 10 1;
#X connect 8 0 19 0;
#X connect 9 0 17 1;
#X connect 11 0 8 0;
#X connect 12 0 9 0;
#X connect 13 0 24 0;
#X connect 15 0 7 1;
#X connect 16 0 15 0;
#X connect 16 1 15 1;
#X connect 17 0 7 0;
#X connect 18 0 12 0;
#X connect 19 0 18 0;
#X connect 19 1 18 1;
#X connect 21 0 1 0;
#X connect 22 0 39 0;
#X connect 22 0 45 0;
#X connect 23 0 39 0;
#X connect 24 0 17 0;
#X connect 27 0 26 0;
#X connect 27 1 30 0;
#X connect 29 0 27 0;
#X connect 31 0 32 0;
#X connect 32 0 33 0;
#X connect 32 0 35 0;
#X connect 32 0 38 0;
#X connect 33 0 34 0;
#X connect 34 0 32 1;
#X connect 36 0 37 0;
#X connect 37 0 25 0;
#X connect 38 0 25 0;
#X connect 39 0 21 0;
#X connect 39 0 40 0;
#X connect 39 1 16 0;
#X connect 39 1 31 0;
#X connect 39 2 19 0;
#X connect 39 2 37 0;
#X connect 40 0 41 0;
#X connect 41 0 25 0;
#X connect 42 0 43 0;
#X connect 44 0 42 0;
#X connect 45 0 46 0;
#X connect 46 0 25 0;
#X connect 47 0 22 0;
