#N canvas 345 27 1173 801 10;
#X obj -155 -233 receive fromGUI;
#X obj -155 -205 list trim;
#X obj -154 -152 route touchesByTime;
#X obj 11 -57 send multitouch;
#X obj 11 -91 list prepend 0;
#X obj -153 -92 list length;
#X obj -152 -125 t l l;
#X obj -153 -62 / 3;
#X floatatom -123 -42 5 0 0 0 - - -;
#X obj 9 -1 table multitouch 30;
#X obj -152 76 metro 100;
#X obj -152 52 tgl 15 0 empty empty empty 17 7 0 10 -262144 -1 -1 0
1;
#X obj -148 111 int;
#X obj -109 101 + 1;
#X obj -152 -21 t f f;
#X obj -108 125 % 1;
#X obj -152 2 > 0;
#X floatatom -149 146 5 0 0 0 - - -;
#X obj -149 168 * 3;
#X obj -149 215 + 1;
#X obj -150 240 tabread multitouch;
#X floatatom -148 266 5 0 0 0 - - -;
#X obj -152 28 change;
#X obj -149 191 t f f;
#X obj -23 242 tabread multitouch;
#X floatatom -22 264 5 0 0 0 - - -;
#X obj -22 217 + 2;
#X obj 538 67 receive fromSystem;
#X obj 537 97 list trim;
#X obj 540 124 route /tilts;
#X obj -21 482 delay;
#X obj -21 505 bng 15 250 50 0 empty empty empty 17 7 0 10 -262144
-1 -1;
#X floatatom -136 345 5 0 0 0 - - -;
#X obj -146 317 + 48;
#X obj -147 292 * 25;
#X floatatom -21 401 5 0 0 0 - - -;
#X obj -11 428 t b f;
#X obj 539 153 unpack 0 0;
#X obj -22 290 expr (1-$f1)*(1-$f1)*950+50;
#X obj 170 658 until;
#X obj 169 696 int;
#X obj 207 699 + 1;
#X msg 219 627 0;
#X obj 174 821 send toGUI;
#X msg 173 779 list /myLCD moveto \$1 0 \, list /myLCD lineto \$1 1
;
#X msg 268 803 list /myLCD clear;
#X obj 275 636 until;
#X obj 275 666 int;
#X obj 313 669 + 1;
#X msg 277 747 list /myLCD moveto 0 \$1 \, list /myLCD lineto 1 \$1
;
#X obj -154 -180 route /myMultiTouch;
#X obj 177 213 receive fromGUI;
#X obj 177 241 list trim;
#X obj 178 266 route /myToggle;
#X obj 168 582 sel 1 0;
#X obj 436 346 phasor~;
#X obj 438 371 -~ 0.5;
#X obj 437 295 + 0;
#X floatatom 455 172 5 0 0 0 - - -;
#X obj 470 431 line~;
#X obj 438 457 *~;
#X floatatom 744 385 5 0 0 0 - - -;
#X msg -146 649 list /titleLabel highlight \$1;
#X obj -141 674 send toGUI;
#X obj -144 508 t b;
#X msg -144 624 1;
#X msg -113 622 0;
#X obj 455 238 t b f;
#X floatatom -145 404 5 0 0 0 - - -;
#X floatatom 501 336 5 0 0 0 - - -;
#X obj 538 234 expr ($f1+1)*($f1+1)*3000;
#X floatatom 555 263 5 0 0 0 - - -;
#X obj 555 328 line~;
#X obj 551 300 pack 0 50;
#X msg -33 579 0 100;
#X obj 436 318 mtof;
#X obj 438 402 vcf~ 6;
#X msg -74 581 1 10;
#X obj 556 434 delwrite~ fun 2000;
#X obj 440 532 dac~;
#X obj 556 469 delread~ fun 500;
#X obj 438 507 +~;
#X obj 276 695 / 20;
#X msg 273 608 20;
#X obj 277 720 expr sqrt($f1);
#X msg 169 628 24;
#X obj 169 732 / 24;
#X obj 739 283 receive fromGUI;
#X obj 741 309 list trim;
#X obj 742 359 expr $f1*.9+.1;
#X obj 741 334 route /dutySlider /delaySlider;
#X floatatom 833 440 5 0 0 0 - - -;
#X obj 827 407 * 0.9;
#X obj 556 498 *~ 0;
#X obj -72 75 sel 0;
#X text 9 -35 holds the current "touchesByTime" array \,;
#X text 8 -19 triplets of: voice # \, X \, Y;
#X text -121 218 read X;
#X text -129 -64 compute # of touches;
#X text -111 148 iterate through touch index;
#X text 8 218 read Y;
#X text -110 320 scale to pitch;
#X text 18 272 scale to duration;
#N canvas 0 22 450 300 quantizepitch 0;
#X obj -93 45 inlet;
#X obj 1 44 inlet;
#X obj 8 93 int;
#X obj -96 131 spigot 1;
#X obj 7 130 spigot;
#X obj -79 99 expr 1-$i1;
#X obj -62 175 outlet;
#X connect 0 0 3 0;
#X connect 0 0 2 0;
#X connect 1 0 5 0;
#X connect 1 0 4 1;
#X connect 2 0 4 0;
#X connect 3 0 6 0;
#X connect 4 0 6 0;
#X connect 5 0 3 1;
#X restore -145 376 pd quantizepitch;
#N canvas 0 22 450 300 quantizetime 0;
#X obj 248 104 tgl 15 0 empty empty empty 17 7 0 10 -262144 -1 -1 0
1;
#X obj 215 323 expr 1-$i1;
#X obj 235 248 int;
#X floatatom 237 278 5 0 0 0 - - -;
#X obj 172 349 spigot 1;
#X obj 236 348 spigot;
#X obj 238 198 / 50;
#X obj 236 302 * 50;
#X obj 238 223 + 0;
#X obj 34 105 inlet;
#X obj 85 107 inlet;
#X obj 162 388 outlet;
#X connect 0 0 1 0;
#X connect 0 0 5 1;
#X connect 1 0 4 1;
#X connect 2 0 3 0;
#X connect 3 0 7 0;
#X connect 4 0 11 0;
#X connect 5 0 11 0;
#X connect 6 0 8 0;
#X connect 7 0 5 0;
#X connect 8 0 2 0;
#X connect 9 0 4 0;
#X connect 9 0 6 0;
#X connect 10 0 0 0;
#X restore -20 372 pd quantizetime;
#X obj 179 287 tgl 15 0 empty empty empty 17 7 0 10 -262144 -1 -1 0
1;
#X text -115 506 noteon;
#X text 7 510 note off;
#X text 22 402 duration between noteons;
#X text 22 457 duty cycle of note off;
#X obj 455 197 expr int((-1*$f1)*3.4)*12;
#X obj -21 453 * 0.1;
#X connect 0 0 1 0;
#X connect 1 0 50 0;
#X connect 2 0 6 0;
#X connect 4 0 3 0;
#X connect 5 0 7 0;
#X connect 6 0 5 0;
#X connect 6 1 4 0;
#X connect 7 0 8 0;
#X connect 7 0 14 0;
#X connect 10 0 12 0;
#X connect 11 0 10 0;
#X connect 11 0 94 0;
#X connect 12 0 13 0;
#X connect 12 0 17 0;
#X connect 13 0 15 0;
#X connect 14 0 16 0;
#X connect 14 1 15 1;
#X connect 15 0 12 1;
#X connect 16 0 22 0;
#X connect 17 0 18 0;
#X connect 18 0 23 0;
#X connect 19 0 20 0;
#X connect 20 0 21 0;
#X connect 21 0 34 0;
#X connect 22 0 11 0;
#X connect 23 0 19 0;
#X connect 23 1 26 0;
#X connect 24 0 25 0;
#X connect 25 0 38 0;
#X connect 26 0 24 0;
#X connect 27 0 28 0;
#X connect 28 0 29 0;
#X connect 29 0 37 0;
#X connect 30 0 31 0;
#X connect 31 0 66 0;
#X connect 31 0 74 0;
#X connect 33 0 32 0;
#X connect 33 0 103 0;
#X connect 34 0 33 0;
#X connect 35 0 10 1;
#X connect 35 0 111 0;
#X connect 36 0 111 0;
#X connect 36 1 111 1;
#X connect 37 0 70 0;
#X connect 37 1 58 0;
#X connect 38 0 104 0;
#X connect 39 0 40 0;
#X connect 40 0 41 0;
#X connect 40 0 86 0;
#X connect 41 0 40 1;
#X connect 42 0 40 1;
#X connect 42 0 47 1;
#X connect 44 0 43 0;
#X connect 45 0 43 0;
#X connect 46 0 47 0;
#X connect 47 0 48 0;
#X connect 47 0 82 0;
#X connect 48 0 47 1;
#X connect 49 0 43 0;
#X connect 50 0 2 0;
#X connect 51 0 52 0;
#X connect 52 0 53 0;
#X connect 53 0 105 0;
#X connect 54 0 85 0;
#X connect 54 0 83 0;
#X connect 54 1 45 0;
#X connect 54 1 42 0;
#X connect 55 0 56 0;
#X connect 56 0 76 0;
#X connect 57 0 69 0;
#X connect 57 0 75 0;
#X connect 58 0 110 0;
#X connect 59 0 60 1;
#X connect 60 0 78 0;
#X connect 60 0 81 0;
#X connect 61 0 36 0;
#X connect 62 0 63 0;
#X connect 64 0 65 0;
#X connect 64 0 77 0;
#X connect 65 0 62 0;
#X connect 66 0 62 0;
#X connect 67 0 57 0;
#X connect 67 1 57 1;
#X connect 68 0 57 0;
#X connect 68 0 64 0;
#X connect 70 0 71 0;
#X connect 71 0 73 0;
#X connect 72 0 76 1;
#X connect 73 0 72 0;
#X connect 74 0 59 0;
#X connect 75 0 55 0;
#X connect 76 0 60 0;
#X connect 77 0 59 0;
#X connect 80 0 93 0;
#X connect 81 0 79 0;
#X connect 81 0 79 1;
#X connect 82 0 84 0;
#X connect 83 0 46 0;
#X connect 84 0 49 0;
#X connect 85 0 39 0;
#X connect 86 0 44 0;
#X connect 87 0 88 0;
#X connect 88 0 90 0;
#X connect 89 0 61 0;
#X connect 90 0 89 0;
#X connect 90 1 92 0;
#X connect 92 0 91 0;
#X connect 92 0 93 1;
#X connect 93 0 78 0;
#X connect 93 0 81 1;
#X connect 94 0 31 0;
#X connect 103 0 68 0;
#X connect 104 0 35 0;
#X connect 105 0 104 1;
#X connect 105 0 103 1;
#X connect 105 0 54 0;
#X connect 110 0 67 0;
#X connect 111 0 30 0;
