#N canvas 25 22 1292 836 10;
#X obj 23 32 receive fromGUI;
#X floatatom 23 125 5 0 0 0 - - -, f 5;
#X msg 24 185 list /receiveSlider \$1;
#X msg 38 216 list /receiveKnob \$1;
#X text 67 292 this is actually an array of strings \, but they get
concatenated for display.;
#X obj 24 375 send toGUI;
#X msg 61 252 list /receiveLabel the value: \$1;
#X obj 407 344 print;
#X obj 494 265 send toGUI;
#X msg 489 128 list /theGrid 2 1 \$1;
#X obj 572 163 select 1;
#X msg 572 188 list /theGrid clear;
#X obj 405 98 route /theGrid /gridToggle /gridClearButton /panelToggle
;
#X msg 624 221 list /thePanel highlight \$1;
#X text 452 344 messages from the grid;
#X obj 410 439 send toGUI;
#X msg 406 379 list /theGrid getcolumn 1;
#X msg 424 404 list /theGrid getrow 2;
#X text 580 386 request lists from the grid;
#X msg 60 277 list /receiveLabel the value: \$1 \$2;
#X msg 61 337 list /receiveXY \$1 \$2;
#X obj 23 97 route /touchSlider /touchToggle /touchXY;
#X msg 188 214 list /receiveToggle \$1;
#X obj 188 160 > 0.5;
#X obj 192 186 change;
#X obj 845 99 route /panel3Slider0 /panel3Slider1 /panel3Slider2;
#X obj 846 199 send toGUI;
#X msg 934 162 list /panel3Slider2 \$1;
#X msg 846 136 list /panel3Slider1 set \$1;
#X obj 1171 377 send toGUI;
#X obj 1173 97 route /panel4Multi /panel4Slider;
#X obj 1174 140 list prepend /panel4ValLabel slider values:;
#X obj 1251 186 select 0 1 2 3;
#X msg 1253 271 0 0.1 0.2 0.3 0.4 0.5 0.6 0.7;
#X obj 1196 330 list prepend /panel4Multi;
#X msg 1252 217 0.33 0.66;
#X msg 1250 242 0 0.33 0.66 1;
#X msg 1254 303 0 0.1 0.2 0.3 0.4 0.5 0.6 0.7 0 0.1 0.2 0.3 0.4 0.5
0.6 0.7;
#X obj 1549 95 route /panel5MultiTouch;
#X obj 23 64 list trim;
#X obj 1657 516 list;
#X obj 1617 671 send toGUI;
#X obj 1620 515 t b l;
#X obj 1676 617 list;
#X obj 1628 618 list;
#X obj 1647 585 list prepend;
#X obj 1726 516 t b b;
#X obj 1619 484 list split 3;
#X obj 1546 134 route touch touchesByVox;
#X obj 1626 644 list prepend /panel5TouchListLabel;
#X obj 1416 497 list;
#X obj 1376 671 send toGUI;
#X obj 1379 496 t b l;
#X obj 1435 617 list;
#X obj 1387 618 list;
#X obj 1406 585 list prepend;
#X obj 1469 497 t b b;
#X obj 1378 465 list split 4;
#X obj 1385 644 list prepend /panel5TouchLabel;
#X msg 1647 547 ( \$2 \$3 );
#X msg 1406 547 ( \$1 \$2 \$3 \$4 );
#X obj 1779 162 route range;
#X obj 1878 131 sel 1;
#X obj 1778 63 table /panel6Table 300;
#X msg 1879 159 list /panel6Table refresh;
#X obj 1779 247 send toGUI;
#X msg 1778 203 list /panel6Label You selected range \$1 to \$2;
#X obj 2003 302 sel 1;
#X msg 2004 330 list /setPage 0;
#X obj 2002 361 send toSystem;
#X obj 1779 94 route /panel6Table /panel6ResetButton /panel6PageButton
;
#X obj 2186 93 route /panel7EnableToggleA /panel7EnableToggleB;
#X obj 2181 248 send toGUI;
#X obj 2184 146 list prepend /panel7SliderA enable;
#X obj 2194 171 list prepend /panel7XYSliderA enable;
#X obj 2317 205 list prepend /panel7SliderB enable;
#X obj 2327 230 list prepend /panel7XYSliderB enable;
#X connect 0 0 39 0;
#X connect 1 0 2 0;
#X connect 1 0 3 0;
#X connect 1 0 6 0;
#X connect 1 0 23 0;
#X connect 2 0 5 0;
#X connect 3 0 5 0;
#X connect 6 0 5 0;
#X connect 9 0 8 0;
#X connect 10 0 11 0;
#X connect 11 0 8 0;
#X connect 12 0 7 0;
#X connect 12 1 9 0;
#X connect 12 2 10 0;
#X connect 12 3 13 0;
#X connect 13 0 8 0;
#X connect 16 0 15 0;
#X connect 17 0 15 0;
#X connect 19 0 5 0;
#X connect 20 0 5 0;
#X connect 21 0 1 0;
#X connect 21 1 2 0;
#X connect 21 1 3 0;
#X connect 21 1 6 0;
#X connect 21 1 22 0;
#X connect 21 2 19 0;
#X connect 21 2 20 0;
#X connect 22 0 5 0;
#X connect 23 0 24 0;
#X connect 24 0 22 0;
#X connect 25 0 28 0;
#X connect 25 1 27 0;
#X connect 27 0 26 0;
#X connect 28 0 26 0;
#X connect 30 0 31 0;
#X connect 30 1 32 0;
#X connect 31 0 29 0;
#X connect 32 0 35 0;
#X connect 32 1 36 0;
#X connect 32 2 33 0;
#X connect 32 3 37 0;
#X connect 33 0 34 0;
#X connect 34 0 29 0;
#X connect 35 0 34 0;
#X connect 36 0 34 0;
#X connect 37 0 34 0;
#X connect 38 0 48 0;
#X connect 39 0 12 0;
#X connect 39 0 21 0;
#X connect 39 0 25 0;
#X connect 39 0 30 0;
#X connect 39 0 38 0;
#X connect 39 0 70 0;
#X connect 39 0 71 0;
#X connect 40 0 47 0;
#X connect 42 0 40 0;
#X connect 42 1 59 0;
#X connect 43 0 45 1;
#X connect 44 0 49 0;
#X connect 45 0 43 0;
#X connect 45 0 44 1;
#X connect 46 0 43 0;
#X connect 46 0 44 1;
#X connect 46 1 44 0;
#X connect 47 0 42 0;
#X connect 47 1 40 1;
#X connect 47 2 46 0;
#X connect 48 0 57 0;
#X connect 48 1 47 0;
#X connect 49 0 41 0;
#X connect 50 0 57 0;
#X connect 52 0 50 0;
#X connect 52 1 60 0;
#X connect 53 0 55 1;
#X connect 54 0 58 0;
#X connect 55 0 53 0;
#X connect 55 0 54 1;
#X connect 56 0 53 0;
#X connect 56 1 54 0;
#X connect 57 0 52 0;
#X connect 57 1 50 1;
#X connect 57 2 56 0;
#X connect 58 0 51 0;
#X connect 59 0 45 0;
#X connect 60 0 55 0;
#X connect 61 0 66 0;
#X connect 62 0 64 0;
#X connect 64 0 65 0;
#X connect 66 0 65 0;
#X connect 67 0 68 0;
#X connect 68 0 69 0;
#X connect 70 0 61 0;
#X connect 70 1 62 0;
#X connect 70 2 67 0;
#X connect 71 0 73 0;
#X connect 71 0 74 0;
#X connect 71 1 75 0;
#X connect 71 1 76 0;
#X connect 73 0 72 0;
#X connect 74 0 72 0;
#X connect 75 0 72 0;
#X connect 76 0 72 0;
