#N canvas 571 135 650 377 10;
#X obj 61 42 receive fromGUI;
#X obj 61 69 route list;
#X msg 63 146 list /label0 Volume: \$1;
#X msg 87 173 list /label1 Modulation: \$1;
#X obj 60 229 send toGUI;
#X obj 411 341 dac~;
#X obj 410 288 *~;
#X obj 447 265 phasor~;
#X obj 445 237 * -10;
#X obj 402 173 phasor~;
#X obj 393 91 osc~;
#X obj 391 65 * 7;
#X obj 399 116 *~ 220;
#X obj 494 113 osc~;
#X obj 495 142 *~ 600;
#X obj 493 82 * 0.74;
#X obj 497 170 +~ 1200;
#X obj 405 210 vcf~ 8;
#X obj 402 147 +~ 330;
#X obj 406 255 *~;
#X obj 447 291 *~ 0.5;
#X obj 447 316 +~ 0.5;
#X obj 61 97 route /welcomeSlider0 /welcomeSlider1 /wearMultiSlider
;
#X obj 149 261 pack 0 0;
#X obj 169 237 t b f;
#X msg 155 290 list /wearMultiSlider set \$1 \$2;
#X msg 91 202 list /welcomeSlider0 set \$1 \, list /welcomeSlider1
set \$2;
#X obj 293 130 unpack 0 0;
#X connect 0 0 1 0;
#X connect 1 0 22 0;
#X connect 2 0 4 0;
#X connect 3 0 4 0;
#X connect 6 0 5 0;
#X connect 6 0 5 1;
#X connect 7 0 20 0;
#X connect 8 0 7 0;
#X connect 9 0 17 0;
#X connect 10 0 12 0;
#X connect 11 0 10 0;
#X connect 12 0 18 0;
#X connect 13 0 14 0;
#X connect 14 0 16 0;
#X connect 15 0 13 0;
#X connect 16 0 17 1;
#X connect 17 0 19 0;
#X connect 18 0 9 0;
#X connect 19 0 6 0;
#X connect 20 0 21 0;
#X connect 21 0 19 1;
#X connect 22 0 2 0;
#X connect 22 0 6 1;
#X connect 22 0 23 0;
#X connect 22 1 3 0;
#X connect 22 1 8 0;
#X connect 22 1 11 0;
#X connect 22 1 15 0;
#X connect 22 1 24 0;
#X connect 22 2 26 0;
#X connect 22 2 27 0;
#X connect 23 0 25 0;
#X connect 24 0 23 0;
#X connect 24 1 23 1;
#X connect 25 0 4 0;
#X connect 26 0 4 0;
#X connect 27 0 6 1;
#X connect 27 0 2 0;
#X connect 27 1 15 0;
#X connect 27 1 11 0;
#X connect 27 1 8 0;
#X connect 27 1 3 0;
