#N canvas 265 79 877 721 10;
#X obj 434 434 dac~;
#X obj 431 339 catch~ theVocod;
#X floatatom 200 155 5 0 0 0 - - -;
#X obj 143 23 adc~;
#X floatatom 240 155 5 0 0 0 - - -;
#X obj 240 177 send ramptime;
#N canvas 0 22 834 545 speedlim 0;
#X msg 83 139 1;
#X obj 57 164 spigot 1;
#X obj 87 93 t b b;
#X msg 112 139 0;
#X obj 60 49 inlet;
#X obj 59 213 outlet;
#X obj 85 115 delay 200;
#X connect 0 0 1 1;
#X connect 1 0 2 0;
#X connect 1 0 5 0;
#X connect 2 0 6 0;
#X connect 2 1 3 0;
#X connect 3 0 1 1;
#X connect 4 0 1 0;
#X connect 6 0 0 0;
#X restore -1 509 pd speedlim;
#X obj 5 532 list prepend /analysisMulti;
#X obj 8 618 send toGUI;
#X obj 0 487 pack 0 0 0 0 0 0 0 0;
#X obj -13 206 +~;
#X obj -16 53 expr~ $v1 > 0.1;
#X floatatom -17 7 5 0 0 0 - - -;
#X obj 21 90 noise~;
#X obj 200 23 receive fromGUI;
#X obj 21 114 *~ 0.5;
#X floatatom 380 108 5 0 0 0 - - -;
#X obj 488 136 sqrt;
#X obj 381 136 expr sqrt(1-$f1);
#X msg 381 156 \$1 20;
#X obj 489 179 line~;
#X msg 489 158 \$1 20;
#X obj -13 173 *~;
#X obj 23 173 *~;
#X obj 544 136 mtof;
#X obj 541 113 expr $f1*36+33;
#X obj 242 130 expr $f1*$f1*980+20;
#X msg 105 567 list /qLabel Q: \$1;
#X msg 121 591 list /envLabel \$1 ms;
#X msg 138 617 list /pitchLabel \$1 Hz;
#X obj 201 104 expr (1-$f1)*25+10;
#X floatatom 475 407 5 0 0 0 - - -;
#X obj 475 378 expr ($f1-10)/2.5+1;
#X obj -14 28 phasor~ 55;
#X obj 432 407 *~;
#X obj 201 67 route /qSlider /envSlider /xfadeSlider /pitchSlider /powerToggle
;
#X obj 431 382 *~ 11;
#X obj 381 177 line~;
#X msg 422 177 1;
#X obj 422 156 loadbang;
#X obj 80 211 vocod_channel 200;
#X obj 81 238 vocod_channel 400;
#X obj 82 266 vocod_channel 800;
#X obj 81 289 vocod_channel 1600;
#X obj 82 343 vocod_channel 3200;
#X obj 86 402 vocod_channel 6400;
#X obj 83 374 vocod_channel 4000;
#X obj 82 317 vocod_channel 2000;
#X text 379 120 equal power crossfade;
#X text 605 377 amplitude compensation for Q values;
#X obj 200 48 list trim;
#X connect 1 0 36 0;
#X connect 2 0 27 0;
#X connect 2 0 32 0;
#X connect 2 0 40 3;
#X connect 2 0 41 3;
#X connect 2 0 42 3;
#X connect 2 0 43 3;
#X connect 2 0 44 3;
#X connect 2 0 45 3;
#X connect 2 0 46 3;
#X connect 2 0 47 3;
#X connect 3 0 40 1;
#X connect 3 0 41 1;
#X connect 3 0 42 1;
#X connect 3 0 43 1;
#X connect 3 0 44 1;
#X connect 3 0 45 1;
#X connect 3 0 46 1;
#X connect 3 0 47 1;
#X connect 4 0 5 0;
#X connect 4 0 28 0;
#X connect 6 0 7 0;
#X connect 7 0 8 0;
#X connect 9 0 6 0;
#X connect 10 0 40 0;
#X connect 10 0 41 0;
#X connect 10 0 42 0;
#X connect 10 0 43 0;
#X connect 10 0 44 0;
#X connect 10 0 45 0;
#X connect 10 0 46 0;
#X connect 10 0 47 0;
#X connect 11 0 22 0;
#X connect 12 0 33 0;
#X connect 13 0 15 0;
#X connect 14 0 50 0;
#X connect 15 0 23 0;
#X connect 16 0 17 0;
#X connect 16 0 18 0;
#X connect 17 0 21 0;
#X connect 18 0 19 0;
#X connect 19 0 37 0;
#X connect 20 0 23 1;
#X connect 21 0 20 0;
#X connect 22 0 10 0;
#X connect 23 0 10 1;
#X connect 24 0 12 0;
#X connect 24 0 29 0;
#X connect 25 0 24 0;
#X connect 26 0 4 0;
#X connect 27 0 8 0;
#X connect 28 0 8 0;
#X connect 29 0 8 0;
#X connect 30 0 2 0;
#X connect 31 0 36 1;
#X connect 32 0 31 0;
#X connect 33 0 11 0;
#X connect 34 0 0 0;
#X connect 34 0 0 1;
#X connect 35 0 30 0;
#X connect 35 1 26 0;
#X connect 35 2 16 0;
#X connect 35 3 25 0;
#X connect 35 4 34 1;
#X connect 36 0 34 0;
#X connect 37 0 22 1;
#X connect 38 0 37 0;
#X connect 39 0 38 0;
#X connect 40 0 9 0;
#X connect 41 0 9 1;
#X connect 42 0 9 2;
#X connect 43 0 9 3;
#X connect 44 0 9 4;
#X connect 45 0 9 5;
#X connect 46 0 9 7;
#X connect 47 0 9 6;
#X connect 50 0 35 0;
