#N canvas 406 95 993 557 10;
#X obj 70 20 receive fromGUI;
#X obj 69 47 list trim;
#X obj 801 125 send toGUI;
#X msg 801 28 list /myLCD paintrect 0.55 0.2 0.95 0.8 \, list /myLCD
paintrect 0.65 0 0.85 1 \, list /myLCD paintrect 0.6 0.25 0.9 0.75
0.2 0.3 0.4 1 \, list /myLCD penwidth 10 \, list /myLCD moveto 0.1
0.1 \, list /myLCD lineto 0.1 0.4 \, list /myLCD lineto 0.5 0.4 \,
list /myLCD moveto 0.1 0.9 \, list /myLCD lineto 0.1 0.6 \, list /myLCD
lineto 0.5 0.6;
#X obj 66 167 send toGUI;
#X obj 67 101 list prepend /myMultiSlider set;
#X obj 79 125 list prepend /wearMultiSlider set;
#X obj 157 170 list prepend 0;
#X obj 158 221 table seq 8;
#X obj 158 197 send seq;
#X obj 67 71 route /wearMultiSlider /myMultiSlider /wearXYSlider /myXYSlider
/wearGrid /myGrid, f 94;
#X obj 292 165 send toGUI;
#X obj 305 123 list prepend /wearXYSlider set;
#X obj 293 99 list prepend /myXYSlider set;
#X obj 501 163 send toGUI;
#X obj 501 114 list prepend /myGrid set;
#X obj 513 133 list prepend /wearGrid set;
#X obj 382 164 unpack 0 0;
#X obj 564 549 dac~;
#N canvas 47 97 764 436 analogdrums 0;
#X obj 78 126 noise~;
#X obj 169 164 line~;
#X obj 78 193 *~;
#X obj 121 217 osc~;
#X obj 120 197 line~;
#X obj 167 64 bng 15 250 50 0 empty empty empty 17 7 0 10 -262144 -1
-1;
#X obj 80 285 +~;
#X obj 299 231 line~;
#X obj 268 232 *~;
#X floatatom 285 156 5 0 0 0 - - -, f 5;
#X obj 265 182 bp~ 4000 10;
#X obj 375 202 *~ 0.5;
#X obj 422 229 line~;
#X obj 377 237 *~;
#X floatatom 408 154 5 0 0 0 - - -, f 5;
#X obj 196 69 bng 15 250 50 0 empty empty empty 17 7 0 10 -262144 -1
-1;
#X obj 221 70 bng 15 250 50 0 empty empty empty 17 7 0 10 -262144 -1
-1;
#X obj 374 180 bp~ 11000 30;
#X msg 420 203 1 \, 0 40;
#X obj 544 225 line~;
#X obj 499 233 *~;
#X msg 542 199 1 \, 0 200;
#X obj 250 72 bng 15 250 50 0 empty empty empty 17 7 0 10 -262144 -1
-1;
#X obj 497 208 *~ 0.5;
#X obj 163 11 unpack 0 0 0 0;
#X obj 161 34 sel 1;
#X obj 202 35 sel 1;
#X obj 244 35 sel 1;
#X obj 285 36 sel 1;
#X obj 102 13 inlet;
#X obj 82 315 outlet~;
#X msg 167 138 1 \, 0 200;
#X obj 78 149 bp~ 200 30;
#X msg 161 197 400 \, 0 50;
#X obj 79 171 *~ 10;
#X obj 170 230 *~ 0.5;
#X obj 254 204 *~ 0.7;
#X msg 307 205 1 \, 0 100;
#X connect 0 0 10 0;
#X connect 0 0 17 0;
#X connect 0 0 32 0;
#X connect 1 0 2 1;
#X connect 2 0 6 0;
#X connect 3 0 35 0;
#X connect 4 0 3 0;
#X connect 5 0 31 0;
#X connect 5 0 33 0;
#X connect 6 0 30 0;
#X connect 7 0 8 1;
#X connect 8 0 6 0;
#X connect 9 0 10 2;
#X connect 10 0 36 0;
#X connect 11 0 13 0;
#X connect 12 0 13 1;
#X connect 13 0 6 0;
#X connect 14 0 17 2;
#X connect 15 0 37 0;
#X connect 16 0 18 0;
#X connect 17 0 11 0;
#X connect 17 0 23 0;
#X connect 18 0 12 0;
#X connect 19 0 20 1;
#X connect 20 0 6 0;
#X connect 21 0 19 0;
#X connect 22 0 21 0;
#X connect 23 0 20 0;
#X connect 24 0 25 0;
#X connect 24 1 26 0;
#X connect 24 2 27 0;
#X connect 24 3 28 0;
#X connect 25 0 5 0;
#X connect 26 0 15 0;
#X connect 27 0 16 0;
#X connect 28 0 22 0;
#X connect 29 0 24 0;
#X connect 31 0 1 0;
#X connect 32 0 34 0;
#X connect 33 0 4 0;
#X connect 34 0 2 0;
#X connect 35 0 6 0;
#X connect 36 0 8 0;
#X connect 37 0 7 0;
#X restore 560 503 pd analogdrums;
#X obj 772 198 send toGUI;
#X msg 771 172 list /myGrid getcolumn \$1;
#X obj 532 92 route column;
#X obj 691 114 int;
#X obj 727 112 + 1;
#X obj 692 46 tgl 15 0 empty empty empty 17 7 0 10 -262144 -1 -1 1
1;
#X floatatom 690 138 5 0 0 0 - - -, f 5;
#X obj 727 138 % 8;
#X obj 689 170 tabread seq;
#X obj 689 192 * 24;
#X floatatom 689 217 5 0 0 0 - - -, f 5;
#X obj 690 237 int;
#X obj 693 262 + 48;
#X obj 690 340 phasor~;
#X obj 690 284 mtof;
#X floatatom 751 450 5 0 0 0 - - -, f 5;
#X obj 691 69 metro 125;
#X obj 733 265 + 60;
#X obj 734 287 mtof;
#X obj 744 338 phasor~;
#X obj 684 504 *~;
#X obj 726 504 line~;
#X obj 781 476 t b;
#X obj 683 370 -~ 0.5;
#X obj 687 -10 loadbang;
#X obj 748 369 -~ 0.5;
#X obj 381 221 *;
#X obj 380 246 * 15000;
#X obj 380 274 + 200;
#X obj 381 201 t f f;
#X obj 685 477 *~;
#X obj 439 240 *;
#X obj 439 220 t f f;
#X obj 684 454 vcf~ 20;
#X msg 781 499 2 \, 0 125;
#X obj 692 25 delay 500;
#X obj -214 102 list prepend /wearMultiSlider;
#X obj -192 134 list prepend /demoMultiSliderB;
#X obj -214 169 send toGUI;
#X obj -214 72 route /demoMultiSliderA /wearMultiSlider;
#X text -307 31 Send device slider value to watch. Without "set" \,
the watch triggers output \, which is received here.;
#X text -207 8 page 1;
#X text 226 14 page 2;
#X connect 0 0 1 0;
#X connect 1 0 10 0;
#X connect 1 0 59 0;
#X connect 3 0 2 0;
#X connect 5 0 4 0;
#X connect 6 0 4 0;
#X connect 7 0 9 0;
#X connect 10 0 5 0;
#X connect 10 0 7 0;
#X connect 10 1 7 0;
#X connect 10 1 6 0;
#X connect 10 2 13 0;
#X connect 10 2 17 0;
#X connect 10 3 12 0;
#X connect 10 3 17 0;
#X connect 10 4 15 0;
#X connect 10 5 22 0;
#X connect 12 0 11 0;
#X connect 13 0 11 0;
#X connect 15 0 14 0;
#X connect 16 0 14 0;
#X connect 17 0 49 0;
#X connect 17 1 52 0;
#X connect 19 0 18 0;
#X connect 19 0 18 1;
#X connect 21 0 20 0;
#X connect 22 0 19 0;
#X connect 22 1 16 0;
#X connect 23 0 24 0;
#X connect 23 0 26 0;
#X connect 24 0 27 0;
#X connect 25 0 36 0;
#X connect 26 0 28 0;
#X connect 26 0 42 0;
#X connect 26 0 21 0;
#X connect 27 0 23 1;
#X connect 28 0 29 0;
#X connect 29 0 30 0;
#X connect 30 0 31 0;
#X connect 31 0 32 0;
#X connect 31 0 37 0;
#X connect 32 0 34 0;
#X connect 33 0 43 0;
#X connect 34 0 33 0;
#X connect 35 0 53 1;
#X connect 36 0 23 0;
#X connect 37 0 38 0;
#X connect 38 0 39 0;
#X connect 39 0 45 0;
#X connect 40 0 18 0;
#X connect 40 0 18 1;
#X connect 41 0 40 1;
#X connect 42 0 54 0;
#X connect 43 0 53 0;
#X connect 44 0 55 0;
#X connect 45 0 53 0;
#X connect 46 0 47 0;
#X connect 47 0 48 0;
#X connect 48 0 35 0;
#X connect 49 0 46 0;
#X connect 49 1 46 1;
#X connect 50 0 40 0;
#X connect 51 0 50 1;
#X connect 52 0 51 0;
#X connect 52 1 51 1;
#X connect 53 0 50 0;
#X connect 54 0 41 0;
#X connect 55 0 25 0;
#X connect 55 0 3 0;
#X connect 56 0 58 0;
#X connect 57 0 58 0;
#X connect 59 0 56 0;
#X connect 59 1 57 0;
