#N canvas 64 128 1293 585 10;
#X obj 58 22 receive fromGUI;
#X floatatom 55 142 5 0 0 0 - - -, f 5;
#X obj 55 277 send toGUI;
#X obj 205 355 send toSystem;
#X obj 651 -19 receive fromSystem;
#X obj 644 274 send toGUI;
#X obj 655 39 route /tilts /accel /gyro /motion /accelFrequency /gyroFrequency
/motionFrequency;
#X msg 214 230 list /setAccelFrequency \$1 \, list /setGyroFrequency
\$1 \, list /setMotionFrequency \$1;
#X obj 179 193 t b f;
#X msg 160 267 list /getAccelFrequency \, list /getGyroFrequency \,
list /getMotionFrequency;
#X obj 790 559 mtof;
#X obj 929 454 expr ($f1/3.14159+1)*12+48;
#X obj 928 426 unpack 0 0 0;
#X obj 792 585 phasor~;
#X obj 799 675 dac~;
#X msg 55 190 list /rateLabel \$1;
#X obj 54 116 expr $f1*10+5;
#X obj 842 557 mtof;
#X obj 947 475 expr ($f1/3.14159+1)*12+48;
#X obj 844 583 phasor~;
#X obj 897 557 mtof;
#X obj 975 498 expr ($f1/3.14159+1)*12+48;
#X obj 899 583 phasor~;
#X obj 797 646 *~ 0.3;
#X obj 795 622 lop~ 1000;
#N canvas 0 22 834 545 speedlim 0;
#X msg 83 139 1;
#X obj 57 164 spigot 1;
#X obj 87 93 t b b;
#X msg 112 139 0;
#X obj 85 115 delay 200;
#X obj 60 49 inlet;
#X obj 59 213 outlet;
#X connect 0 0 1 1;
#X connect 1 0 2 0;
#X connect 1 0 6 0;
#X connect 2 0 4 0;
#X connect 2 1 3 0;
#X connect 3 0 1 1;
#X connect 4 0 0 0;
#X connect 5 0 1 0;
#X restore 655 106 pd speedlim;
#N canvas 0 22 834 545 speedlim 0;
#X msg 83 139 1;
#X obj 57 164 spigot 1;
#X obj 87 93 t b b;
#X msg 112 139 0;
#X obj 85 115 delay 200;
#X obj 60 49 inlet;
#X obj 59 213 outlet;
#X connect 0 0 1 1;
#X connect 1 0 2 0;
#X connect 1 0 6 0;
#X connect 2 0 4 0;
#X connect 2 1 3 0;
#X connect 3 0 1 1;
#X connect 4 0 0 0;
#X connect 5 0 1 0;
#X restore 668 132 pd speedlim;
#N canvas 0 22 834 545 speedlim 0;
#X msg 83 139 1;
#X obj 57 164 spigot 1;
#X obj 87 93 t b b;
#X msg 112 139 0;
#X obj 85 115 delay 200;
#X obj 60 49 inlet;
#X obj 59 213 outlet;
#X connect 0 0 1 1;
#X connect 1 0 2 0;
#X connect 1 0 6 0;
#X connect 2 0 4 0;
#X connect 2 1 3 0;
#X connect 3 0 1 1;
#X connect 4 0 0 0;
#X connect 5 0 1 0;
#X restore 742 104 pd speedlim;
#N canvas 0 22 834 545 speedlim 0;
#X msg 83 139 1;
#X obj 57 164 spigot 1;
#X obj 87 93 t b b;
#X msg 112 139 0;
#X obj 85 115 delay 200;
#X obj 60 49 inlet;
#X obj 59 213 outlet;
#X connect 0 0 1 1;
#X connect 1 0 2 0;
#X connect 1 0 6 0;
#X connect 2 0 4 0;
#X connect 2 1 3 0;
#X connect 3 0 1 1;
#X connect 4 0 0 0;
#X connect 5 0 1 0;
#X restore 757 130 pd speedlim;
#X msg 652 172 list /tiltLabel x: \$1 y: \$2;
#X msg 672 195 list /accelLabel x: \$1 y: \$2 z: \$3;
#X msg 689 217 list /gyroLabel roll: \$1 pitch: \$2 yaw: \$3;
#X msg 709 241 list /motionLabel roll: \$1 pitch: \$2 yaw: \$3;
#X obj 300 164 send toGUI;
#X obj 298 89 t l b;
#X obj 298 24 unpack 0 0 0;
#X obj 297 53 pack 0 0 1;
#X obj 53 83 route /rateSlider /sourceGrid;
#X obj 299 117 list prepend /sourceGrid set;
#X msg 337 139 list /sourceGrid clear;
#X obj 838 365 spigot;
#X obj 859 339 == 0;
#X obj 888 364 spigot;
#X obj 941 365 spigot;
#X obj 991 364 spigot;
#X obj 910 338 == 1;
#X obj 962 339 == 2;
#X obj 1012 338 == 3;
#X obj 794 430 unpack 0 0 0;
#X obj 795 458 expr ($f1+1)*12+48;
#X obj 813 479 expr ($f1+1)*12+48;
#X obj 841 502 expr ($f1+1)*12+48;
#X obj 930 612 > 0;
#X obj 899 612 *~;
#X text 647 89 custom abstraction to slow down message rate to GUI
;
#X text 861 20 last few return the current update freq;
#X text 1004 392 tilt and accel are -1 to 1 \, while gyro and motion
are -pi to pi \, so scale them differently to pitches;
#X text 297 1 trick to use grid like radio buttons;
#X text 263 299 this messages is requesting the update freqs \, sent
from system;
#X obj 56 54 list trim;
#X obj 650 10 list trim;
#X msg 365 360 list /getMotionFrequency;
#X text 425 390;
#X obj 360 331 loadbang;
#X connect 0 0 59 0;
#X connect 1 0 15 0;
#X connect 1 0 8 0;
#X connect 4 0 60 0;
#X connect 6 0 25 0;
#X connect 6 0 40 0;
#X connect 6 1 26 0;
#X connect 6 1 42 0;
#X connect 6 2 27 0;
#X connect 6 2 43 0;
#X connect 6 3 28 0;
#X connect 6 3 44 0;
#X connect 7 0 3 0;
#X connect 8 0 9 0;
#X connect 8 1 7 0;
#X connect 9 0 3 0;
#X connect 10 0 13 0;
#X connect 11 0 10 0;
#X connect 12 0 11 0;
#X connect 12 1 18 0;
#X connect 12 2 21 0;
#X connect 13 0 24 0;
#X connect 15 0 2 0;
#X connect 16 0 1 0;
#X connect 17 0 19 0;
#X connect 18 0 17 0;
#X connect 19 0 24 0;
#X connect 20 0 22 0;
#X connect 21 0 20 0;
#X connect 22 0 53 0;
#X connect 23 0 14 0;
#X connect 23 0 14 1;
#X connect 24 0 23 0;
#X connect 25 0 29 0;
#X connect 26 0 30 0;
#X connect 27 0 31 0;
#X connect 28 0 32 0;
#X connect 29 0 5 0;
#X connect 30 0 5 0;
#X connect 31 0 5 0;
#X connect 32 0 5 0;
#X connect 34 0 38 0;
#X connect 34 1 39 0;
#X connect 35 0 36 0;
#X connect 35 1 36 1;
#X connect 35 1 41 0;
#X connect 35 1 45 0;
#X connect 35 1 46 0;
#X connect 35 1 47 0;
#X connect 35 1 52 0;
#X connect 36 0 34 0;
#X connect 37 0 16 0;
#X connect 37 1 35 0;
#X connect 38 0 33 0;
#X connect 39 0 33 0;
#X connect 40 0 48 0;
#X connect 41 0 40 1;
#X connect 42 0 48 0;
#X connect 43 0 12 0;
#X connect 44 0 12 0;
#X connect 45 0 42 1;
#X connect 46 0 43 1;
#X connect 47 0 44 1;
#X connect 48 0 49 0;
#X connect 48 1 50 0;
#X connect 48 2 51 0;
#X connect 49 0 10 0;
#X connect 50 0 17 0;
#X connect 51 0 20 0;
#X connect 52 0 53 1;
#X connect 53 0 24 0;
#X connect 59 0 37 0;
#X connect 60 0 6 0;
#X connect 61 0 3 0;
#X connect 63 0 61 0;
