#N canvas 98 35 1274 793 10;
#X obj 34 15 receive fromGUI;
#X obj 34 46 list trim;
#X obj 34 126 route /ovalButton /autoToggle /clearButton;
#X obj 37 208 random 100;
#X obj 37 233 / 100;
#X obj 105 208 random 100;
#X obj 105 233 / 100;
#X obj 76 257 random 100;
#X obj 76 282 / 100;
#X obj 144 257 random 100;
#X obj 144 282 / 100;
#X obj 34 159 select 1;
#X obj 36 422 send toGUI;
#X obj 225 357 loadbang;
#X obj 179 206 random 100;
#X obj 179 231 / 100;
#X obj 247 206 random 100;
#X obj 247 231 / 100;
#X obj 217 258 random 100;
#X obj 217 283 / 100;
#X obj 35 185 t b b b b b b b;
#X obj 189 314 list;
#X obj 37 310 pack 0 0 0 0 0 0 0;
#X msg 36 335 list /myLCD1 frameoval \$1 \$2 \$3 \$4 \$5 \$6 \$7 0.5
;
#X msg 227 381 list /myLCD1 penwidth 5;
#X obj 201 149 select 1;
#X msg 200 173 list /myLCD1 clear;
#X obj 116 160 metro 250;
#X obj 413 122 route 1 2 0;
#X obj 413 154 t l b;
#X msg 409 359 list /myLCD2 moveto \$1 \$2;
#X obj 415 464 send toGUI;
#X obj 425 227 unpack 0 0;
#X obj 573 301 unpack 0 0;
#X obj 419 296 - 0.05;
#X obj 441 277 - 0.05;
#X obj 468 298 + 0.05;
#X obj 500 277 + 0.05;
#X obj 423 254 t f f;
#X obj 465 253 t f f;
#X msg 643 81 list /myLCD2 clear;
#X obj 419 51 route /myLCD2 /colorMulti /penSlider /clearButton2;
#X obj 515 123 unpack 0 0 0 0;
#X obj 421 327 pack 0 0 0 0 0 0 0 0;
#X obj 571 327 pack 0 0 0 0 0 0;
#X msg 433 395 list /myLCD2 frameoval \$1 \$2 \$3 \$4 \$5 \$6 \$7 \$8
;
#X msg 454 428 list /myLCD2 lineto \$1 \$2 \$3 \$4 \$5 \$6;
#X obj 649 128 * 20;
#X obj 650 153 + 1;
#X msg 648 174 list /myLCD2 penwidth \$1;
#X obj 529 451 loadbang;
#X msg 529 474 list /colorMulti 1 0 0 1 \, list /penSlider 0.2;
#X obj 916 475 send toGUI;
#X msg 967 169 list /myLCD3 clear;
#X obj 935 268 random 100;
#X obj 935 293 / 100;
#X obj 934 239 until;
#X msg 934 210 20;
#X obj 932 318 list append;
#X obj 1019 320 list;
#X obj 912 346 list;
#X obj 888 123 bng 15 250 50 0 empty empty empty 17 7 0 10 -262144
-1 -1;
#X obj 909 393 list prepend;
#X msg 1003 363 list /myLCD3 paintpoly;
#X obj 1021 274 list;
#X obj 912 143 t b b b b;
#X obj 914 84 metro 1000;
#X obj 913 57 loadbang;
#X obj 1071 330 loadbang;
#X text 1058 274 empty list to init;
#X text 100 87 first page;
#X text 530 15 user drawing;
#X text 916 27 feeding multiple aspect ratios;
#X msg 39 569 framerect 0.5 0.5 0.6 0.6;
#X text 228 570 X \, Y \, X \, Y (in LCD highlight color);
#X msg 39 596 framerect 0.5 0.5 0.6 0.6 1 1 0 1;
#X text 294 597 X \, Y \, X \, Y \, R \, G \, B \, A;
#X text 228 626 X \, Y \, X \, Y (in LCD highlight color);
#X text 294 653 X \, Y \, X \, Y \, R \, G \, B \, A;
#X text 32 528 ------LCD spec (to be continued...)-------;
#X msg 39 625 paintrect 0.5 0.5 0.6 0.6;
#X msg 39 652 paintrect 0.5 0.5 0.6 0.6 1 1 0 1;
#X text 229 682 X \, Y \, X \, Y (in LCD highlight color);
#X text 295 709 X \, Y \, X \, Y \, R \, G \, B \, A;
#X text 229 738 X \, Y \, X \, Y (in LCD highlight color);
#X text 295 765 X \, Y \, X \, Y \, R \, G \, B \, A;
#X msg 40 681 frameoval 0.5 0.5 0.6 0.6;
#X msg 40 708 frameoval 0.5 0.5 0.6 0.6 1 1 0 1;
#X msg 40 737 paintoval 0.5 0.5 0.6 0.6;
#X msg 40 764 paintoval 0.5 0.5 0.6 0.6 1 1 0 1;
#X msg 488 570 framepoly 0.1 0.6 0.8 0.2 0.6 0.4 0.3 0.2;
#X text 714 570 list of x \, y pairs (in LCD highlight color);
#X text 850 598 list of x \, y pairs \, with last 4 values R \, G \,
B \, A;
#X msg 488 597 framepolyRGBA 0.5 0.5 0.6 0.6 0.1 0.2 0.3 0.4 0.5 0.6
1 1 0 1;
#X text 766 626 list of x \, y pairs (in LCD highlight color);
#X text 830 653 list of x \, y pairs \, with last 4 values R \, G \,
B \, A;
#X msg 488 626 paintpoly 0.1 0.6 0.8 0.2 0.6 0.4 0.3 0.2;
#X msg 488 653 paintpolyRGBA 0.5 0.5 0.6 0.6 0.1 0.4 0.5 0.6 1 1 0
1;
#X msg 487 685 moveto 0.4 0.4;
#X text 302 528 all coordinates are 0.-1. normalized to the frame of
the LCD;
#X msg 487 709 lineto 0.4 0.4;
#X msg 487 730 lineto 0.4 0.4 0 0 1 1;
#X text 580 683 X \, Y;
#X text 587 706 X \, Y (in LCD highlight color);
#X text 657 730 X \, Y \, R \, G \, B \, A;
#X msg 487 760 penwidth 6;
#X text 560 760 pen width in PIXELS;
#X msg 788 690 clear;
#X connect 0 0 1 0;
#X connect 1 0 2 0;
#X connect 1 0 41 0;
#X connect 2 0 11 0;
#X connect 2 1 27 0;
#X connect 2 2 25 0;
#X connect 3 0 4 0;
#X connect 4 0 22 0;
#X connect 5 0 6 0;
#X connect 6 0 22 2;
#X connect 7 0 8 0;
#X connect 8 0 22 1;
#X connect 9 0 10 0;
#X connect 10 0 22 3;
#X connect 11 0 20 0;
#X connect 13 0 24 0;
#X connect 14 0 15 0;
#X connect 15 0 22 4;
#X connect 16 0 17 0;
#X connect 17 0 22 6;
#X connect 18 0 19 0;
#X connect 19 0 22 5;
#X connect 20 0 3 0;
#X connect 20 1 7 0;
#X connect 20 2 5 0;
#X connect 20 3 9 0;
#X connect 20 4 14 0;
#X connect 20 5 18 0;
#X connect 20 6 16 0;
#X connect 22 0 23 0;
#X connect 23 0 12 0;
#X connect 24 0 12 0;
#X connect 25 0 26 0;
#X connect 26 0 12 0;
#X connect 27 0 20 0;
#X connect 28 0 29 0;
#X connect 28 1 33 0;
#X connect 28 2 32 0;
#X connect 29 0 32 0;
#X connect 29 0 30 0;
#X connect 30 0 31 0;
#X connect 32 0 38 0;
#X connect 32 1 39 0;
#X connect 33 0 44 0;
#X connect 33 1 44 1;
#X connect 34 0 43 0;
#X connect 35 0 43 1;
#X connect 36 0 43 2;
#X connect 37 0 43 3;
#X connect 38 0 34 0;
#X connect 38 1 36 0;
#X connect 39 0 35 0;
#X connect 39 1 37 0;
#X connect 40 0 31 0;
#X connect 41 0 28 0;
#X connect 41 1 42 0;
#X connect 41 2 47 0;
#X connect 41 3 40 0;
#X connect 42 0 43 4;
#X connect 42 0 44 2;
#X connect 42 1 44 3;
#X connect 42 1 43 5;
#X connect 42 2 43 6;
#X connect 42 2 44 4;
#X connect 42 3 43 7;
#X connect 42 3 44 5;
#X connect 43 0 45 0;
#X connect 44 0 46 0;
#X connect 45 0 31 0;
#X connect 46 0 31 0;
#X connect 47 0 48 0;
#X connect 48 0 49 0;
#X connect 49 0 31 0;
#X connect 50 0 51 0;
#X connect 51 0 31 0;
#X connect 53 0 52 0;
#X connect 54 0 55 0;
#X connect 55 0 58 0;
#X connect 56 0 54 0;
#X connect 57 0 56 0;
#X connect 58 0 59 0;
#X connect 58 0 60 1;
#X connect 59 0 58 1;
#X connect 60 0 62 0;
#X connect 61 0 65 0;
#X connect 62 0 52 0;
#X connect 63 0 62 1;
#X connect 64 0 58 1;
#X connect 65 0 60 0;
#X connect 65 1 57 0;
#X connect 65 2 64 0;
#X connect 65 3 53 0;
#X connect 66 0 65 0;
#X connect 67 0 66 0;
#X connect 68 0 63 0;
