#N canvas 649 23 602 388 10;
#X obj 75 226 send toGUI;
#X obj 76 10 bng 15 250 50 0 empty empty empty 17 7 0 10 -262144 -1
-1;
#X obj 77 89 select 0 1 2;
#X obj 78 34 int;
#X obj 113 34 + 1;
#X obj 113 60 % 3;
#X obj 80 -103 receive fromGUI;
#X obj 77 -78 route list;
#X obj 75 -16 select 1;
#X msg 76 142 list /catsPanel image cats2.jpg;
#X msg 97 168 list /catsPanel image cats3.jpg;
#X msg 107 193 list /catsPanel image cats1.jpg;
#X obj 74 -47 route /cycleCatsButton /playClapButton;
#X obj 373 -3 soundfiler;
#X obj 371 -61 loadbang;
#X msg 371 -32 read -resize clap.wav tut5Buf;
#X obj 454 -3 table tut5Buf;
#X obj 299 3 select 1;
#X obj 302 53 tabplay~ tut5Buf;
#X msg 299 29 bang;
#X obj 301 85 dac~;
#X connect 1 0 3 0;
#X connect 2 0 9 0;
#X connect 2 1 10 0;
#X connect 2 2 11 0;
#X connect 3 0 4 0;
#X connect 3 0 2 0;
#X connect 4 0 5 0;
#X connect 5 0 3 1;
#X connect 6 0 7 0;
#X connect 7 0 12 0;
#X connect 8 0 1 0;
#X connect 9 0 0 0;
#X connect 10 0 0 0;
#X connect 11 0 0 0;
#X connect 12 0 8 0;
#X connect 12 1 17 0;
#X connect 14 0 15 0;
#X connect 15 0 13 0;
#X connect 17 0 19 0;
#X connect 18 0 20 0;
#X connect 18 0 20 1;
#X connect 19 0 18 0;
