#N canvas 135 37 1246 734 10;
#X obj 6 40 receive fromGUI;
#X obj 6 105 route /knob0 /knob1;
#X obj 144 106 route /slider0 /slider1 /slider2 /slider3;
#X obj 7 179 route /XYSlider /button /toggle;
#X obj 230 180 route /grid /sliderInPanel;
#X floatatom 20 130 5 0 0 0 - - -, f 5;
#X floatatom 74 130 5 0 0 0 - - -, f 5;
#X floatatom 308 206 5 0 0 0 - - -, f 5;
#X floatatom 154 131 5 0 0 0 - - -, f 5;
#X floatatom 208 131 5 0 0 0 - - -, f 5;
#X floatatom 270 131 5 0 0 0 - - -, f 5;
#X floatatom 331 130 5 0 0 0 - - -, f 5;
#X floatatom 72 208 5 0 0 0 - - -, f 5;
#X floatatom 133 207 5 0 0 0 - - -, f 5;
#X obj 8 237 unpack 0 0;
#X floatatom 7 268 5 0 0 0 - - -, f 5;
#X floatatom 48 268 5 0 0 0 - - -, f 5;
#X obj 230 240 unpack 0 0 0;
#X text 77 239 XY Slider: x \, y;
#X text 321 241 Grid: x \, y \, val (0 or 1);
#X floatatom 231 270 5 0 0 0 - - -, f 5;
#X floatatom 269 270 5 0 0 0 - - -, f 5;
#X floatatom 307 269 5 0 0 0 - - -, f 5;
#X text 116 42 see values coming in from GUI widgets;
#X text 12 298 send some drawing commands to the LCD;
#X obj 23 609 send toGUI;
#X msg 18 363 list /LCD penwidth 5;
#X msg 196 364 list /LCD clear;
#X msg 28 392 list /LCD paintrect 0.05 0.05 0.3 0.4;
#X msg 44 413 list /LCD framerect 0.05 0.5 0.3 0.9;
#X msg 65 439 list /LCD paintoval 0.3 0.05 0.6 0.4;
#X msg 81 460 list /LCD frameoval 0.3 0.5 0.6 0.9;
#X msg 106 586 list /LCD framepoly 0.6 0.65 0.63 0.52 0.8 0.9 0.7 0.85
0.65 0.7 0.85 0.6;
#X msg 103 549 list /LCD paintpoly 0.6 0.15 0.63 0.02 0.8 0.4 0.7 0.35
0.65 0.2 0.85 0.1;
#X msg 312 365 list /LCD penwidth 2;
#X msg 287 410 list /LCD framerect 0.1 0.55 0.25 0.85;
#X msg 324 457 list /LCD frameoval 0.35 0.55 0.55 0.85;
#X obj 113 332 t b b b b;
#X msg 119 486 list /LCD paintrect 0.9 0.1 0.97 0.7 1 1 1 0.5;
#X msg 121 516 list /LCD paintrect 0.85 0.3 0.92 0.9 1 1 1 0.5;
#X obj 113 314 loadbang;
#X obj 497 67 route /myMultiSlider;
#X obj 497 182 route /myMultiTouch;
#X obj 498 210 route touch touchesByVox touchesByTime touchesByX touchesByY
;
#X obj 498 92 list prepend set;
#X text 614 92 (output list of values);
#X msg 498 139 0 0 0.74292 0.74292 0.74292 0.625732 0.495508 0;
#X obj 498 116 list trim;
#X obj 499 235 list prepend set;
#X msg 499 282 0 0.253486 0.547251 0.693439 0.458729 0.779162 0.464852
0;
#X obj 499 259 list trim;
#X text 593 328 fill the Menu;
#X obj 621 356 loadbang;
#X obj 616 428 send toGUI;
#X obj 591 360 bng 15 250 50 0 empty empty empty 17 7 0 10 -262144
-1 -1;
#X obj 6 72 list trim;
#X obj 610 488 receive fromGUI;
#X obj 610 520 list trim;
#X obj 610 546 route /myMenu;
#X text 707 546 on selection \, receive index and value;
#X obj 609 598 send toGUI;
#X msg 611 574 list /myMenuLabel Selected index \$1 : \$2;
#X msg 612 386 list /myMenu this is a list of strings defined in the
PureData patch;
#X obj 607 644 table /myTable 500;
#X msg 749 624 list /myTable refresh;
#X obj 967 62 receive fromGUI;
#X obj 967 94 list trim;
#X text 965 38 New \, sync watch GUI elements!;
#X connect 0 0 55 0;
#X connect 1 0 5 0;
#X connect 1 1 6 0;
#X connect 2 0 8 0;
#X connect 2 1 9 0;
#X connect 2 2 10 0;
#X connect 2 3 11 0;
#X connect 3 0 14 0;
#X connect 3 1 12 0;
#X connect 3 2 13 0;
#X connect 4 0 17 0;
#X connect 4 1 7 0;
#X connect 14 0 15 0;
#X connect 14 1 16 0;
#X connect 17 0 20 0;
#X connect 17 1 21 0;
#X connect 17 2 22 0;
#X connect 26 0 25 0;
#X connect 27 0 25 0;
#X connect 28 0 25 0;
#X connect 29 0 25 0;
#X connect 30 0 25 0;
#X connect 31 0 25 0;
#X connect 32 0 25 0;
#X connect 33 0 25 0;
#X connect 34 0 25 0;
#X connect 35 0 25 0;
#X connect 36 0 25 0;
#X connect 37 0 28 0;
#X connect 37 0 29 0;
#X connect 37 0 33 0;
#X connect 37 0 32 0;
#X connect 37 0 38 0;
#X connect 37 0 39 0;
#X connect 37 1 26 0;
#X connect 37 1 30 0;
#X connect 37 1 31 0;
#X connect 37 2 35 0;
#X connect 37 2 36 0;
#X connect 37 3 34 0;
#X connect 38 0 25 0;
#X connect 39 0 25 0;
#X connect 40 0 37 0;
#X connect 41 0 44 0;
#X connect 42 0 43 0;
#X connect 43 0 48 0;
#X connect 44 0 47 0;
#X connect 47 0 46 0;
#X connect 48 0 50 0;
#X connect 50 0 49 0;
#X connect 52 0 62 0;
#X connect 54 0 62 0;
#X connect 54 0 37 0;
#X connect 55 0 1 0;
#X connect 55 0 2 0;
#X connect 55 0 3 0;
#X connect 55 0 4 0;
#X connect 55 0 41 0;
#X connect 55 0 42 0;
#X connect 56 0 57 0;
#X connect 57 0 58 0;
#X connect 58 0 61 0;
#X connect 61 0 60 0;
#X connect 62 0 53 0;
#X connect 64 0 60 0;
#X connect 65 0 66 0;
