#N canvas 174 55 516 420 10;
#X obj 90 53 inlet~;
#X obj -106 192 *~;
#X obj -108 249 throw~ theVocod;
#X obj 161 53 inlet;
#X obj 220 54 inlet;
#X obj 90 154 env~;
#X obj 88 181 dbtorms;
#X obj 126 209 outlet;
#X obj 88 259 line~;
#X obj 89 236 pack 0 20;
#X obj -98 59 inlet~;
#X obj 161 234 receive ramptime;
#X obj 91 104 bp~ \$1 35;
#X obj 92 128 bp~ \$1 35;
#X obj -107 103 bp~ \$1 35;
#X obj -105 128 bp~ \$1 35;
#X obj 89 211 * 25;
#X connect 0 0 12 0;
#X connect 1 0 2 0;
#X connect 3 0 12 1;
#X connect 3 0 13 1;
#X connect 3 0 14 1;
#X connect 3 0 15 1;
#X connect 4 0 12 2;
#X connect 4 0 13 2;
#X connect 4 0 14 2;
#X connect 4 0 15 2;
#X connect 5 0 6 0;
#X connect 6 0 16 0;
#X connect 8 0 1 1;
#X connect 9 0 8 0;
#X connect 10 0 14 0;
#X connect 11 0 9 1;
#X connect 12 0 13 0;
#X connect 13 0 5 0;
#X connect 14 0 15 0;
#X connect 15 0 1 0;
#X connect 16 0 9 0;
#X connect 16 0 7 0;
