#N canvas 107 202 702 529 10;
#X obj 125 10 receive fromNetwork;
#X obj 125 36 list trim;
#X obj 216 126 route /1/toggle1 /1/toggle2 /1/toggle3 /1/toggle4;
#X obj 125 66 route /1/fader1 /1/fader2 /1/fader3 /1/fader4 /1/fader5
;
#X obj 75 179 metro 125;
#X obj 74 136 loadbang;
#X obj 74 159 tgl 15 0 empty empty empty 17 7 0 10 -262144 -1 -1 1
1;
#X obj 15 330 noise~;
#X obj 59 400 *~;
#X obj 181 460 dac~;
#X obj 76 342 line~;
#X obj 74 288 sel 1;
#X msg 75 316 1 \, 0 125;
#X obj 74 238 random 100;
#X obj 74 264 <= 20;
#X obj 141 401 *~;
#X obj 158 343 line~;
#X obj 156 289 sel 1;
#X msg 157 317 1 \, 0 125;
#X obj 156 239 random 100;
#X obj 156 265 <= 20;
#X floatatom 111 262 5 0 0 0 - - -, f 5;
#X floatatom 201 265 5 0 0 0 - - -, f 5;
#X obj 233 392 *~;
#X obj 250 334 line~;
#X obj 248 280 sel 1;
#X msg 249 308 1 \, 0 125;
#X obj 248 230 random 100;
#X obj 248 256 <= 20;
#X obj 315 393 *~;
#X obj 332 335 line~;
#X obj 330 281 sel 1;
#X msg 331 309 1 \, 0 125;
#X obj 330 231 random 100;
#X obj 330 257 <= 20;
#X floatatom 285 254 5 0 0 0 - - -, f 5;
#X floatatom 375 257 5 0 0 0 - - -, f 5;
#X obj 182 434 +~;
#X floatatom 123 158 5 0 0 0 - - -, f 5;
#X obj 233 366 bp~ 4000 10;
#X obj 141 375 bp~ 2000 10;
#X obj 59 374 bp~ 1000 10;
#X obj 74 214 spigot;
#X obj 157 215 spigot;
#X obj 249 208 spigot;
#X obj 332 209 spigot;
#X obj 216 151 tgl 15 0 empty empty empty 17 7 0 10 -262144 -1 -1 0
1;
#X obj 287 152 tgl 15 0 empty empty empty 17 7 0 10 -262144 -1 -1 0
1;
#X obj 359 149 tgl 15 0 empty empty empty 17 7 0 10 -262144 -1 -1 0
1;
#X obj 434 149 tgl 15 0 empty empty empty 17 7 0 10 -262144 -1 -1 0
1;
#X obj 315 367 bp~ 8000 10;
#X obj 125 88 * 100;
#X obj 188 89 * 100;
#X obj 255 90 * 100;
#X obj 320 90 * 100;
#X obj 374 90 expr 250-(sqrt($f1)*200);
#X text 266 16 This patch receives OSC messages from the first page
of the "Simple" patch in TouchOSC.;
#X connect 0 0 1 0;
#X connect 1 0 3 0;
#X connect 1 0 2 0;
#X connect 2 0 46 0;
#X connect 2 1 47 0;
#X connect 2 2 48 0;
#X connect 2 3 49 0;
#X connect 3 0 51 0;
#X connect 3 1 52 0;
#X connect 3 2 53 0;
#X connect 3 3 54 0;
#X connect 3 4 55 0;
#X connect 4 0 42 0;
#X connect 4 0 43 0;
#X connect 4 0 44 0;
#X connect 4 0 45 0;
#X connect 5 0 6 0;
#X connect 6 0 4 0;
#X connect 7 0 39 0;
#X connect 7 0 40 0;
#X connect 7 0 41 0;
#X connect 7 0 50 0;
#X connect 8 0 37 0;
#X connect 10 0 8 1;
#X connect 11 0 12 0;
#X connect 12 0 10 0;
#X connect 13 0 14 0;
#X connect 14 0 11 0;
#X connect 15 0 37 0;
#X connect 16 0 15 1;
#X connect 17 0 18 0;
#X connect 18 0 16 0;
#X connect 19 0 20 0;
#X connect 20 0 17 0;
#X connect 21 0 14 1;
#X connect 22 0 20 1;
#X connect 23 0 37 0;
#X connect 24 0 23 1;
#X connect 25 0 26 0;
#X connect 26 0 24 0;
#X connect 27 0 28 0;
#X connect 28 0 25 0;
#X connect 29 0 37 0;
#X connect 30 0 29 1;
#X connect 31 0 32 0;
#X connect 32 0 30 0;
#X connect 33 0 34 0;
#X connect 34 0 31 0;
#X connect 35 0 28 1;
#X connect 36 0 34 1;
#X connect 37 0 9 0;
#X connect 37 0 9 1;
#X connect 38 0 4 1;
#X connect 39 0 23 0;
#X connect 40 0 15 0;
#X connect 41 0 8 0;
#X connect 42 0 13 0;
#X connect 43 0 19 0;
#X connect 44 0 27 0;
#X connect 45 0 33 0;
#X connect 46 0 42 1;
#X connect 47 0 43 1;
#X connect 48 0 44 1;
#X connect 49 0 45 1;
#X connect 50 0 29 0;
#X connect 51 0 21 0;
#X connect 52 0 22 0;
#X connect 53 0 35 0;
#X connect 54 0 36 0;
#X connect 55 0 38 0;
