#N canvas 478 125 908 547 10;
#X obj 137 18 receive fromSystem;
#X obj 137 48 list trim;
#X obj 135 77 route /hid;
#X obj 134 104 route 0;
#X obj 135 128 route AXIS_X AXIS_Y AXIS_Z AXIS_RX AXIS_RY AXIS_RZ AXIS_HAT_X
AXIS_HAT_Y;
#X obj 133 216 pack 0 0;
#X obj 134 174 expr ($f1+1)/2;
#X msg 133 242 list /leftXY \$1 \$2;
#X obj 130 416 send toGUI;
#X msg 491 201 list /toggleA \$1;
#X obj 191 313 pack 0 0;
#X obj 192 271 expr ($f1+1)/2;
#X msg 191 339 list /rightXY \$1 \$2;
#X msg 511 223 list /toggleB \$1;
#X msg 532 247 list /toggleX \$1;
#X msg 552 269 list /toggleY \$1;
#X msg 617 341 list /toggleStart \$1;
#X msg 637 363 list /toggleSelect \$1;
#X msg 654 385 list /toggleMode \$1;
#X obj 549 436 send toGUI;
#X obj 412 169 loadbang;
#X msg 432 197 1;
#X msg 349 225 list /sliderHatX \$1;
#X msg 385 281 list /sliderHatY \$1;
#X msg 231 408 list /sliderLZ \$1;
#X msg 291 433 list /sliderRZ \$1;
#X obj 230 386 expr ($f1+1)/2;
#X obj 345 394 expr ($f1+1)/2;
#X msg 576 295 list /toggleL1 \$1;
#X msg 596 317 list /toggleR1 \$1;
#X obj 490 126 route KEYCODE_BUTTON_A KEYCODE_BUTTON_B KEYCODE_BUTTON_X
KEYCODE_BUTTON_Y KEYCODE_BUTTON_L1 KEYCODE_BUTTON_R1 KEYCODE_BUTTON_START
KEYCODE_BUTTON_SELECT KEYCODE_BUTTON_MODE KEYCODE_BUTTON_THUMBL KEYCODE_BUTTON_THUMBR
;
#X msg 684 408 list /toggleLZ \$1;
#X msg 704 430 list /toggleRZ \$1;
#X text 270 14 A HID message is sent for every button press or axis
value change. The format of HID messages is: 1) address "/hid" 2) device
index "0" (MobMuPlat currently supports only one device at a time \;
this may change in the future). 3) The label associated with the axis/button
\, e.g. "AXIS_X" 4) The value (usually -1 to 1 for axes \, 0 and 1
for buttons);
#X text 261 193 invert y;
#X obj 163 193 expr (-$f1+1)/2;
#X text 314 290 invert y;
#X obj 221 290 expr (-$f1+1)/2;
#X text 457 252 invert y;
#X obj 384 252 expr -$f1+1;
#X obj 349 196 + 1;
#X obj -143 182 pack 0 0;
#X obj -142 140 expr ($f1+1)/2;
#X obj -125 278 pack 0 0;
#X obj -124 236 expr ($f1+1)/2;
#X text -143 105 tether maps things differently;
#X obj -144 436 send toGUI;
#X msg -143 208 list /tetherLeftXY \$1 \$2;
#X msg -125 304 list /tetherRightXY \$1 \$2;
#X msg -108 349 list /tetherSliderLZ \$1;
#X msg -100 398 list /tetherSliderRZ \$1;
#X obj -113 159 expr ($f1+1)/2;
#X obj -95 255 expr ($f1+1)/2;
#X text -14 329 invert y;
#X text -2 377 invert y;
#X obj -109 327 expr (-$f1+1)/2;
#X obj -99 376 expr (-$f1+1)/2;
#X connect 0 0 1 0;
#X connect 1 0 2 0;
#X connect 2 0 3 0;
#X connect 3 0 4 0;
#X connect 3 0 30 0;
#X connect 4 0 6 0;
#X connect 4 0 42 0;
#X connect 4 1 35 0;
#X connect 4 1 51 0;
#X connect 4 2 26 0;
#X connect 4 2 55 0;
#X connect 4 3 11 0;
#X connect 4 3 44 0;
#X connect 4 4 37 0;
#X connect 4 4 52 0;
#X connect 4 5 27 0;
#X connect 4 5 56 0;
#X connect 4 6 40 0;
#X connect 4 7 39 0;
#X connect 5 0 7 0;
#X connect 6 0 5 0;
#X connect 7 0 8 0;
#X connect 9 0 19 0;
#X connect 10 0 12 0;
#X connect 11 0 10 0;
#X connect 12 0 8 0;
#X connect 13 0 19 0;
#X connect 14 0 19 0;
#X connect 15 0 19 0;
#X connect 16 0 19 0;
#X connect 17 0 19 0;
#X connect 18 0 19 0;
#X connect 20 0 21 0;
#X connect 21 0 22 0;
#X connect 21 0 23 0;
#X connect 22 0 8 0;
#X connect 23 0 8 0;
#X connect 24 0 8 0;
#X connect 25 0 8 0;
#X connect 26 0 24 0;
#X connect 27 0 25 0;
#X connect 28 0 19 0;
#X connect 29 0 19 0;
#X connect 30 0 9 0;
#X connect 30 1 13 0;
#X connect 30 2 14 0;
#X connect 30 3 15 0;
#X connect 30 4 28 0;
#X connect 30 5 29 0;
#X connect 30 6 16 0;
#X connect 30 7 17 0;
#X connect 30 8 18 0;
#X connect 30 9 31 0;
#X connect 30 10 32 0;
#X connect 31 0 19 0;
#X connect 32 0 19 0;
#X connect 35 0 5 1;
#X connect 37 0 10 1;
#X connect 39 0 23 0;
#X connect 40 0 22 0;
#X connect 41 0 47 0;
#X connect 42 0 41 0;
#X connect 43 0 48 0;
#X connect 44 0 43 0;
#X connect 47 0 46 0;
#X connect 48 0 46 0;
#X connect 49 0 46 0;
#X connect 50 0 46 0;
#X connect 51 0 41 1;
#X connect 52 0 43 1;
#X connect 55 0 49 0;
#X connect 56 0 50 0;
