#N canvas 736 155 650 377 10;
#X obj 61 42 receive fromGUI;
#X obj 61 69 route list;
#X obj 61 97 route /welcomeSlider0 /welcomeSlider1;
#X msg 63 146 list /label0 Volume: \$1;
#X msg 87 173 list /label1 Modulation: \$1;
#X obj 60 216 send toGUI;
#X obj 411 341 dac~;
#X obj 410 288 *~;
#X obj 447 265 phasor~;
#X obj 445 237 * -10;
#X obj 402 173 phasor~;
#X obj 393 91 osc~;
#X obj 391 65 * 7;
#X obj 399 116 *~ 220;
#X obj 494 113 osc~;
#X obj 495 142 *~ 600;
#X obj 493 82 * 0.74;
#X obj 497 170 +~ 1200;
#X obj 405 210 vcf~ 8;
#X obj 402 147 +~ 330;
#X obj 406 255 *~;
#X obj 447 291 *~ 0.5;
#X obj 447 316 +~ 0.5;
#X connect 0 0 1 0;
#X connect 1 0 2 0;
#X connect 2 0 3 0;
#X connect 2 0 7 1;
#X connect 2 1 4 0;
#X connect 2 1 9 0;
#X connect 2 1 12 0;
#X connect 2 1 16 0;
#X connect 3 0 5 0;
#X connect 4 0 5 0;
#X connect 7 0 6 0;
#X connect 7 0 6 1;
#X connect 8 0 21 0;
#X connect 9 0 8 0;
#X connect 10 0 18 0;
#X connect 11 0 13 0;
#X connect 12 0 11 0;
#X connect 13 0 19 0;
#X connect 14 0 15 0;
#X connect 15 0 17 0;
#X connect 16 0 14 0;
#X connect 17 0 18 1;
#X connect 18 0 20 0;
#X connect 19 0 10 0;
#X connect 20 0 7 0;
#X connect 21 0 22 0;
#X connect 22 0 20 1;
